
<svg width="25px" height="40px" viewBox="0 0 25 40" version="1.1" xmlns="http://www.w3.org/2000/svg" xmlns:xlink="http://www.w3.org/1999/xlink">
    <!-- Generator: Sketch 50.2 (55047) - http://www.bohemiancoding.com/sketch -->
    <title>icon/artwork</title>
    <desc>Created with Sketch.</desc>
    <defs></defs>
    <g id="icon/artwork" stroke="none" stroke-width="1" fill="none" fill-rule="evenodd">
        <g id="Page-1">
            <polygon id="Combined-Shape" fill="#FFFFFF" points="21.4694037 0 23.8434228 1.46788405 24.0749524 29.0291789 3.35831746 39.42971 0.569057143 38.0899451 0.569057143 10.3988405"></polygon>
            <polygon id="Combined-Shape" stroke="#C0A690" stroke-width="0.5" fill="#FFFFFF" stroke-linecap="round" stroke-linejoin="round" points="20.8064892 0.341078932 21.4664506 0.000321661648 24.0146349 1.32464225 24.016746 2.30001549 24.0749524 29.0291789 3.35831746 39.42971 0.569057143 38.0899451 0.569468244 38.0598653 0.569057143 38.0596634 0.569057143 10.3248451"></polygon>
            <polygon id="Stroke-5" stroke="#C0A690" stroke-width="0.5" fill="#E6DED3" stroke-linecap="round" stroke-linejoin="round" points="0.569057143 38.0596634 0.569057143 10.3248451 3.35831746 11.6949099 3.35831746 39.42971"></polygon>
            <polygon id="Stroke-7" stroke="#C0A690" stroke-width="0.5" fill="#FFFFFF" stroke-linecap="round" stroke-linejoin="round" points="0.569057143 10.3248451 21.4364857 0.0302816901 24.0146349 1.32464225 3.35831746 11.6949099"></polygon>
            <polygon id="Fill-8" fill="#FFFFFF" points="5.13490794 13.1789549 22.2882889 4.5672662 22.3385333 27.5906169 5.03441905 36.2779493"></polygon>
            <polygon id="Fill-13" fill="#E6DED3" points="22.3385333 27.5906169 20.4142254 26.8246113 5.14112063 34.5298479 5.14112063 36.3314873"></polygon>
            <polygon id="Fill-10" fill="#E6DED3" points="5.14112063 36.3314873 5.03441905 34.4904817 20.4142254 26.8246113 20.4142254 5.60689718 22.3385333 4.59246056 22.3385333 27.5906169"></polygon>
            <polygon id="Stroke-9" stroke="#C0A690" stroke-width="0.5" stroke-linecap="round" stroke-linejoin="round" points="5.13490794 13.1789549 22.2882889 4.5672662 22.3385333 27.5906169 5.03441905 36.2779493"></polygon>
            <path d="M13.1370444,12.2077606 C13.9042222,12.0078408 15.0932,11.9677479 15.5219968,12.9026042 C15.7710476,13.4451915 15.7546413,14.9185775 15.6982444,16.0592282 C15.4949746,17.340931 15.0262476,18.4362197 14.2966476,19.3238972 C13.3191429,20.5129986 12.095,21.0555859 11.5028635,21.2620465 C10.6956952,21.2708887 10.2199111,20.3053268 10.0131429,19.4253408 C9.77114921,18.3978831 9.9179619,17.7249028 9.9179619,17.7249028 L9.9179619,17.2955085 C9.70299048,16.8289887 9.89449841,15.0329817 10.179981,14.3139732 C10.4654635,13.5961761 11.3748095,13.1302014 11.6344159,12.7934085 C11.9974667,12.3233155 12.4861587,10.8323056 12.6295333,10.3805028 C9.65015238,12.2525775 8.90637778,15.1456296 8.76083175,15.8876521 C8.40604444,16.4055296 8.11350476,17.1634197 8.41074921,17.6748169 C8.30380635,17.8653493 8.19692381,18.1077239 8.15458095,18.3648761 C8.11935556,18.5795732 8.1205619,18.8691873 8.28733968,19.1228268 C7.99130159,19.8471042 7.35923492,21.7734437 8.05119683,23.713531 C8.71854921,25.5856056 8.4342127,26.3181197 8.25096825,26.6790169 C7.80214603,27.0824296 6.32068889,28.4985831 5.70032381,30.1807915 C5.52293016,30.3488549 5.32671746,30.5747563 5.14112063,30.8484423 L5.14347302,34.4357324 L20.4130794,26.7698014 L20.4142254,20.5854324 C19.9689619,20.153131 19.4508952,19.7042958 18.9997206,19.4636169 C18.8763714,18.8106831 18.2619175,15.5294803 18.2408063,14.2862958 C18.2290444,13.5855775 18.2020222,11.9429169 17.6004762,10.7456394 C16.9003111,9.35007746 15.6173587,9.00450282 13.8737619,9.73120282 L12.9291905,10.2054141 C11.8166349,12.5959113 12.8892603,12.2720789 13.1371651,12.2078211 L13.1370444,12.2077606 Z M15.9273302,22.1939958 C15.9273302,22.3874352 16.0013397,22.5237028 16.1223365,22.5926845 C16.0178063,22.7384 15.9507937,22.9041014 15.9507937,23.0550859 C15.9507937,23.1235225 15.9649079,23.1813606 15.9895778,23.2290845 C15.8333556,23.4538352 15.7358222,23.7103817 15.7358222,23.9416127 C15.7358222,24.0819986 15.772254,24.1946465 15.8345016,24.2789507 C15.6723683,24.4924972 15.5678381,24.7466817 15.5678381,24.972038 C15.5678381,25.087593 15.5960063,25.1820113 15.645346,25.2539606 C14.9498254,25.9251845 14.1615365,27.3047577 14.1615365,27.3047577 C12.5883968,28.2136324 8.98635873,29.4475507 8.84286349,28.3222225 C8.69954921,27.1968338 12.110019,22.9225732 12.110019,22.9225732 C12.110019,22.7751014 12.0278063,22.1475437 11.9655587,21.6892606 C12.0548286,21.6491676 12.1476571,21.6048958 12.2451302,21.5559606 C12.9535587,21.2002718 13.8511429,20.6057817 14.6418444,19.6460944 C15.0201556,19.1872662 15.3373651,18.6859225 15.5969714,18.1462423 C15.6498698,19.6614775 15.9999524,21.351862 15.9999524,21.351862 L16.2302444,21.4462197 C16.0469397,21.6750282 15.9270889,21.9499254 15.9270889,22.1941169 L15.9273302,22.1939958 Z" id="Fill-11" fill="#C0A690"></path>
            <polygon id="Stroke-12" stroke="#C0A690" stroke-width="0.5" stroke-linecap="round" stroke-linejoin="round" points="5.13768254 13.2114775 20.3496254 5.57449577 20.3942 26.7793099 5.04859365 34.4833958"></polygon>
        </g>
    </g>
</svg>