<svg width="52px" height="51px" viewBox="0 0 52 51" version="1.1" xmlns="http://www.w3.org/2000/svg" xmlns:xlink="http://www.w3.org/1999/xlink">
    <!-- Generator: Sketch 50.2 (55047) - http://www.bohemiancoding.com/sketch -->
    <title>icon/blockchain</title>
    <desc>Created with Sketch.</desc>
    <defs></defs>
    <g id="icon/blockchain" stroke="none" stroke-width="1" fill="none" fill-rule="evenodd">
        <g id="blockchain" transform="translate(12.000000, 1.000000)">
            <polygon id="Stroke-1" stroke="#C0A690" stroke-width="0.5" fill="#E6DED3" stroke-linecap="round" stroke-linejoin="round" points="0.0160993135 27.0066022 0.0160993135 46.4577344 4.94575423 48.8891259 4.94575423 29.4379676"></polygon>
            <polygon id="Stroke-2" stroke="#C0A690" stroke-width="0.5" fill="#FFFFFF" stroke-linecap="round" stroke-linejoin="round" points="4.94575423 29.4379676 4.94575423 48.8891259 28.9888513 37.0306983 28.9888513 17.5795137"></polygon>
            <polygon id="Stroke-3" stroke="#C0A690" stroke-width="0.5" fill="#FFFFFF" stroke-linecap="round" stroke-linejoin="round" points="0.0160993135 27.0066022 24.0591167 15.1481484 28.9888513 17.5795137 4.94575423 29.4379676"></polygon>
            <path d="M6.7102151,27.4095823 C9.07750435,27.0546509 8.59256064,25.50649 8.59256064,25.50649 C8.59256064,25.50649 8.58177025,20.7956297 8.59256064,18.3117643 C8.60335103,15.827899 9.8623492,6.58973192 15.6422151,4.94089152 C20.9713135,3.42074813 21.3563432,9.14390274 21.3563432,10.2177307 C21.3563432,11.2915586 21.0610343,18.7540212 21.0610343,18.7540212 C21.0732449,18.8408229 22.2004622,19.6009601 23.5093776,19.281116 C24.2479817,19.1005736 25.1998719,18.788192 25.2018627,17.7943579 C25.25827,17.8582481 25.3007414,10.8273067 25.2321236,8.53197007 C25.2706133,6.83927057 23.5399039,-1.88947631 15.0971213,0.466215711 C4.85580778,3.32373441 4.09985675,17.0618454 4.09985675,17.0618454 L3.92598947,26.802101 C3.92598947,26.802101 4.74937712,27.7036347 6.7102151,27.4095823 Z" id="Fill-5" fill="#FFFFFF"></path>
            <path d="M6.7102151,27.4095823 C9.07750435,27.0546509 8.59256064,25.50649 8.59256064,25.50649 C8.59256064,25.50649 8.58177025,20.7956297 8.59256064,18.3117643 C8.60335103,15.827899 9.8623492,6.58973192 15.6422151,4.94089152 C20.9713135,3.42074813 21.3563432,9.14390274 21.3563432,10.2177307 C21.3563432,11.2915586 21.0610343,18.7540212 21.0610343,18.7540212 C21.0732449,18.8408229 22.2004622,19.6009601 23.5093776,19.281116 C24.2479817,19.1005736 25.1998719,18.788192 25.2018627,17.7943579 C25.25827,17.8582481 25.3007414,10.8273067 25.2321236,8.53197007 C25.2706133,6.83927057 23.5399039,-1.88947631 15.0971213,0.466215711 C4.85580778,3.32373441 4.09985675,17.0618454 4.09985675,17.0618454 L3.92598947,26.802101 C3.92598947,26.802101 4.74937712,27.7036347 6.7102151,27.4095823 Z" id="Stroke-6" stroke="#C0A690" stroke-width="0.5" stroke-linecap="round" stroke-linejoin="round"></path>
            <g id="Group-2" opacity="0.900000036" transform="translate(8.826087, 22.500000)">
                <path d="M0.101183416,10.1079752 C0.101183416,11.3575596 0.599886607,11.6937418 1.37882372,11.3040741 C2.15776083,10.9143181 2.65647261,10.0790259 2.65647261,8.82944151 C2.65647261,8.26316565 2.53773539,7.89309167 2.30500151,7.71666002 C2.07226763,7.54022837 1.76354742,7.54826003 1.37882372,7.74075499 C0.994108601,7.93324995 0.680630664,8.23651115 0.447905371,8.64586081 C0.21517149,9.05512222 0.101183416,9.54169934 0.101183416,10.1079752 Z M2.01527788,9.15026645 C2.01527788,9.60418739 1.9630287,9.94760687 1.85853892,10.1805249 C1.75879828,10.4110599 1.59731016,10.584579 1.37882372,10.693933 C1.16034586,10.8031989 0.998857747,10.7912838 0.894367963,10.6629538 C0.794627325,10.5322408 0.74237814,10.2410712 0.74237814,9.78715027 C0.74237814,9.00128364 0.956115439,8.5623669 1.37882372,8.35089605 C1.80154058,8.13933694 2.01527788,8.36439982 2.01527788,9.15026645 Z" id="Fill-7" fill="#C0A690"></path>
                <polygon id="Fill-8" fill="#A08268" points="4.41382811 9.71230583 4.41382811 6.29540999 3.84862829 6.57819488 3.08393862 7.44896758 3.08393862 8.15672415 3.80112825 7.33414138 3.80112825 10.0188326"></polygon>
                <path d="M5.2450144,7.5342267 C5.2450144,8.78389938 5.74372618,9.12008154 6.52266329,8.73032559 C7.30157464,8.34056963 7.80027783,7.50536569 7.80027783,6.25569301 C7.80027783,5.68950541 7.68159214,5.31934316 7.44885826,5.14291151 C7.21612438,4.96647987 6.907387,4.97451152 6.52266329,5.16700648 C6.13793959,5.35950144 5.82447024,5.66276264 5.59173636,6.07211231 C5.35900248,6.48146197 5.2450144,6.96803909 5.2450144,7.5342267 Z M7.15910028,6.57651794 C7.15910028,7.03052714 7.10688545,7.37394662 7.0023699,7.60677638 C6.90266362,7.83731138 6.74114115,8.01083045 6.52266329,8.12018453 C6.30417685,8.22953861 6.14268873,8.21753526 6.03819895,8.08920528 C5.93845831,7.95849229 5.88620913,7.66741097 5.88620913,7.21340176 C5.88620913,6.42753514 6.09994643,5.98870665 6.52266329,5.77714754 C6.94534581,5.56567669 7.15910028,5.79065131 7.15910028,6.57651794 Z" id="Fill-9" fill="#C0A690"></path>
                <path d="M8.13280388,6.08941126 C8.13280388,7.33899568 8.63150707,7.67517784 9.41043559,7.28542189 C10.1893641,6.89575419 10.6880673,6.06046199 10.6880673,4.81087757 C10.6880673,4.24460171 10.5692957,3.87443946 10.3365619,3.69800781 C10.103828,3.52157617 9.79517647,3.52960782 9.41043559,3.72210278 C9.02569471,3.91459774 8.71223395,4.2179472 8.47950007,4.62720861 C8.24676619,5.03655827 8.13280388,5.52313539 8.13280388,6.08941126 Z M10.0468898,5.13161424 C10.0468898,5.58562344 9.99458904,5.92904292 9.89015938,6.16196094 C9.79036721,6.39240768 9.62891345,6.56601501 9.41043559,6.67528083 C9.19195773,6.78463491 9.03041809,6.77263156 8.92598842,6.64438984 C8.82619626,6.51367685 8.77398142,6.22250727 8.77398142,5.76858633 C8.77398142,4.98263144 8.9877359,4.54380295 9.41043559,4.3323321 C9.83313528,4.12077299 10.0468898,4.34574761 10.0468898,5.13161424 Z" id="Fill-10" fill="#A08268"></path>
                <path d="M11.0442961,5.5453769 C11.2342619,6.00194564 11.6569616,6.16143138 12.3172045,5.83107437 C12.668624,5.65517228 12.9631054,5.40045406 13.2006485,5.06691969 C13.4381058,4.73329707 13.5568774,4.37610904 13.5568774,4.00029816 C13.5568774,3.66340991 13.4523618,3.44240699 13.24814,3.32978729 C13.0439182,3.21716759 12.792119,3.23579044 12.4929143,3.38547932 C12.2316683,3.51619231 11.9989344,3.7253684 11.9087608,3.843725 C11.8659927,3.89932877 11.8327573,3.94522394 11.8185013,3.97673275 L11.813692,3.97426147 L11.9419962,3.13888101 L13.233884,2.49246511 L13.233884,1.88232405 L11.4575491,2.77110178 L11.1677911,4.65377485 L11.6664943,4.66295389 C11.8232247,4.34045202 12.0464259,4.10673966 12.3314605,3.96419983 C12.6781567,3.79068077 12.944126,3.87726378 12.944126,4.28731952 C12.944126,4.69728701 12.6781567,5.05006204 12.3172045,5.23064191 C11.9894877,5.3946289 11.7472212,5.2864222 11.6475149,4.97998364 L11.0442961,5.5453769 Z" id="Fill-11" fill="#C0A690"></path>
                <path d="M16.2784038,3.77585309 L16.2784038,3.13155543 L14.6492667,3.9466361 C14.6492667,3.8441663 14.6729694,3.74928685 14.7157375,3.65961473 C14.7537822,3.58688853 14.8107204,3.50463026 14.8914473,3.4154877 C14.9722601,3.32625689 15.1384372,3.1552091 15.3807037,2.90711037 C15.632417,2.64930305 15.79868,2.46369236 15.9743898,2.19997162 C16.1596323,1.92671881 16.2546152,1.64490477 16.2546152,1.36662114 C16.2546152,1.03476372 16.1500996,0.828323684 15.936431,0.744918028 C15.7273999,0.659041093 15.4614306,0.694521595 15.1384372,0.85612557 C14.4022768,1.22452262 13.9557884,1.8676729 13.9130203,2.63588753 L14.5210483,2.41470809 C14.5637305,1.94904857 14.7585056,1.63201882 15.1052018,1.45849975 C15.4329186,1.29451276 15.646673,1.37306412 15.646673,1.62689974 C15.646673,1.79777101 15.603905,1.93625088 15.466154,2.11744857 C15.3949598,2.2068559 15.3332123,2.28655464 15.2761882,2.3492192 C15.2239733,2.40950075 15.1337138,2.49864331 15.0054955,2.6262672 L14.9105126,2.72255881 C14.5304951,3.10790176 14.2787818,3.40471999 14.1600102,3.6105422 C14.0128125,3.85996483 13.9415324,4.13966062 13.9415324,4.45210086 L13.9415324,4.94512096 L16.2784038,3.77585309 Z" id="Fill-12" fill="#A08268"></path>
                <path d="M0.124929143,15.8901319 C0.314912128,16.3466565 0.737628994,16.5061246 1.39782889,16.1758029 C1.74929999,15.9999449 2.04377276,15.745209 2.28125578,15.4116129 C2.51873881,15.0780168 2.63747603,14.7208464 2.63747603,14.3449914 C2.63747603,14.0081826 2.53298624,13.7871178 2.32874723,13.6745246 C2.12451681,13.5619402 1.87278635,13.5805013 1.57356444,13.7302255 C1.31233568,13.8609296 1.0796018,14.0701146 0.989359456,14.1884888 C0.946608561,14.2440484 0.913364544,14.2899701 0.899117109,14.3215054 L0.894367963,14.3189988 L1.02260347,13.4836007 L2.3144998,12.8372377 L2.3144998,12.2270084 L0.538147718,13.1158391 L0.248415507,14.9985298 L0.747127285,15.0077089 C0.903866254,14.6852247 1.12709326,14.4514946 1.41207632,14.3089107 C1.75879828,14.1354269 2.02477617,14.2220011 2.02477617,14.6320304 C2.02477617,15.0420508 1.75879828,15.3947906 1.39782889,15.5754057 C1.07010351,15.7393839 0.827871342,15.6311595 0.728130704,15.3247298 L0.124929143,15.8901319 Z" id="Fill-15" fill="#A08268"></path>
                <path d="M2.9224505,14.2219305 C3.01269285,14.962661 3.49715719,15.1254035 4.21909598,14.764182 C4.5943128,14.5764443 4.88404501,14.333853 5.09302458,14.0291531 C5.30201273,13.7244621 5.40650252,13.4232397 5.40650252,13.1254771 C5.40650252,12.8618623 5.3400059,12.6901084 5.21177039,12.6127927 C5.08352629,12.5304461 4.95529078,12.5067925 4.82229754,12.5440382 L4.82229754,12.529387 C4.92203817,12.4453636 5.02177881,12.3270952 5.11202116,12.1696395 C5.20226351,12.012272 5.24976355,11.8323099 5.24976355,11.627282 C5.24976355,11.3392898 5.15002291,11.1646234 4.95053305,11.0935741 C4.75580092,11.0202301 4.50407045,11.0582701 4.20484854,11.207959 C3.57790125,11.5217231 3.1456861,12.1187135 3.08868776,12.7573625 L3.67289274,12.5773122 C3.72513334,12.2045904 3.8913706,11.9505783 4.18110281,11.8056554 C4.48032473,11.6558783 4.65606028,11.7388426 4.65606028,12.017038 C4.65606028,12.2903791 4.46132815,12.5342413 4.16209764,12.6840185 L3.96736551,12.7814575 L3.96736551,13.2988461 L4.18585196,13.1895274 C4.59906195,12.9827784 4.8080501,13.044172 4.8080501,13.3809808 C4.8080501,13.6982665 4.58956366,13.9930636 4.21434683,14.1808102 C3.82963171,14.3733052 3.60639612,14.2360521 3.54464865,13.7739406 L2.9224505,14.2219305 Z" id="Fill-16" fill="#C0A690"></path>
                <path d="M5.76272276,12.1564887 C5.76272276,13.406082 6.26143454,13.7423083 7.04032871,13.35257 C7.81934311,12.9628228 8.31804631,12.1275395 8.31804631,10.877955 C8.31804631,10.3116792 8.19927473,9.94160519 7.96654085,9.76517354 C7.73380697,9.5887419 7.42506959,9.59677355 7.04032871,9.78926851 C6.65564795,9.98176347 6.3421786,10.2850247 6.10944472,10.6943743 C5.87671084,11.1036357 5.76272276,11.5902129 5.76272276,12.1564887 Z M7.67678288,11.19878 C7.67678288,11.6527009 7.62456804,11.9961204 7.5200525,12.2290384 C7.42034621,12.4595734 7.25889245,12.6330925 7.04032871,12.7424466 C6.82185085,12.8517124 6.66039709,12.8397973 6.55590731,12.7114673 C6.45616667,12.5807543 6.40391749,12.2895847 6.40391749,11.8356638 C6.40391749,11.0497972 6.61765479,10.6108804 7.04032871,10.3994096 C7.46311428,10.1879387 7.67678288,10.4129133 7.67678288,11.19878 Z" id="Fill-17" fill="#A08268"></path>
                <path d="M10.2131528,11.0377938 L10.2131528,11.6918883 L10.8162856,11.3900393 L10.8162856,10.7359448 L11.2057499,10.5410668 L11.2057499,9.93092574 L10.8162856,10.1258037 L10.8162856,7.97314345 L9.84266792,8.46033839 L8.57920635,11.2402621 L8.57920635,11.8552575 L10.2131528,11.0377938 Z M10.2036201,8.76298177 L10.2131528,8.75821573 L10.2131528,10.4276528 L9.22519316,10.9219085 L10.2036201,8.76298177 Z" id="Fill-18" fill="#C0A690"></path>
                <path d="M11.4669958,9.30233835 C11.4669958,10.5519228 11.965699,10.8881932 12.7446275,10.4984372 C13.5235561,10.1086813 14.0222593,9.27338908 14.0222593,8.02380466 C14.0222593,7.45761706 13.9035736,7.08745481 13.6708397,6.91102316 C13.4381058,6.73459152 13.1293684,6.74262317 12.7446275,6.93511813 C12.3599725,7.12761309 12.0464259,7.43087429 11.813692,7.84022396 C11.5809581,8.24957362 11.4669958,8.73615074 11.4669958,9.30233835 Z M13.3810817,8.34462959 C13.3810817,8.79863879 13.3288669,9.14205827 13.2243513,9.37488803 C13.124645,9.60542303 12.9631054,9.7789421 12.7446275,9.88829618 C12.5261497,9.997562 12.3646959,9.98564691 12.2601804,9.85731693 C12.1604741,9.72660394 12.1081734,9.43552262 12.1081734,8.98151341 C12.1081734,8.19564679 12.3219279,7.7568183 12.7446275,7.54525919 C13.1674131,7.33378834 13.3810817,7.55876296 13.3810817,8.34462959 Z" id="Fill-19" fill="#A08268"></path>
                <path d="M15.1574166,8.06113862 C15.1574166,7.9000642 15.2097173,7.73237029 15.3189563,7.55567386 C15.4281952,7.37897744 15.5802022,7.24438101 15.7654446,7.1516198 C16.1453762,6.96150786 16.3685775,7.10369464 16.3685775,7.46000008 C16.3685775,7.82610236 16.1549089,8.19176335 15.7891474,8.37472623 C15.3949598,8.57198723 15.1574166,8.45654321 15.1574166,8.06113862 Z M15.0529869,7.39098079 C15.0719663,6.7615108 15.3379357,6.22330161 15.7369326,6.02374585 C16.0123486,5.8858838 16.1881443,5.94925445 16.2688712,6.21147477 L16.8483013,5.76540897 C16.748595,5.30760459 16.3923661,5.10999055 15.7797006,5.41660563 C15.3569151,5.62807648 15.0244749,5.97017206 14.7727616,6.44757015 C14.5257717,6.92258522 14.4022768,7.41392838 14.4022768,7.92159963 C14.4022768,8.49264153 14.5304951,8.8629803 14.7870176,9.03235115 C15.0481777,9.19942724 15.3807037,9.17948049 15.7891474,8.9751587 C16.1168642,8.8111717 16.3970895,8.56351427 16.6203766,8.23712897 C16.8483013,7.90332982 16.9623494,7.55346737 16.9623494,7.18736508 C16.9623494,6.83105965 16.8531105,6.60255463 16.6345468,6.51173513 C16.4160689,6.42091564 16.1596323,6.44677581 15.8698743,6.59169865 C15.4567072,6.79849172 15.1716726,7.14605942 15.0577103,7.39345207 L15.0529869,7.39098079 Z" id="Fill-20" fill="#C0A690"></path>
                <path d="M0.124929143,20.7713927 C0.314912128,21.2279174 0.737628994,21.3873854 1.39782889,21.0570549 C1.74929999,20.881197 2.04377276,20.6264699 2.28125578,20.2928738 C2.51873881,19.9592776 2.63747603,19.6021072 2.63747603,19.2262522 C2.63747603,18.8894434 2.53298624,18.6683699 2.32874723,18.5557855 C2.12451681,18.4432011 1.87278635,18.4617622 1.57356444,18.6114775 C1.31233568,18.7421817 1.0796018,18.9513754 0.989359456,19.0697497 C0.946608561,19.1253005 0.913364544,19.171231 0.899117109,19.2027662 L0.894367963,19.2002597 L1.02260347,18.3648527 L2.3144998,17.7184545 L2.3144998,17.1083046 L0.538147718,17.9971 L0.248415507,19.8797907 L0.747127285,19.8889697 C0.903866254,19.5664767 1.12709326,19.3327555 1.41207632,19.1901716 C1.75879828,19.0166878 2.02477617,19.103262 2.02477617,19.5132912 C2.02477617,19.9233117 1.75879828,20.2760514 1.39782889,20.4566578 C1.07010351,20.6206359 0.827871342,20.5124204 0.728130704,20.2059907 L0.124929143,20.7713927 Z" id="Fill-23" fill="#C0A690"></path>
                <path d="M2.94619623,18.4469786 C2.94619623,19.6965807 3.44490801,20.032807 4.22384512,19.6430599 C5.00278223,19.2533215 5.50149401,18.418047 5.50149401,17.1684449 C5.50149401,16.602222 5.3827482,16.2320774 5.15002291,16.0556458 C4.91728903,15.879223 4.60856882,15.8872546 4.22384512,16.0797496 C3.83913,16.2722357 3.52565207,16.5755234 3.29291819,16.9848466 C3.06019289,17.3941698 2.94619623,17.8807557 2.94619623,18.4469786 Z M4.8602907,17.4892699 C4.8602907,17.9432261 4.8080501,18.2866456 4.70356032,18.5195371 C4.60381968,18.7500456 4.44233157,18.9235912 4.22384512,19.03291 C4.00536726,19.1422199 3.84387915,19.1302783 3.73938937,19.0019572 C3.63964014,18.871253 3.58739954,18.5801099 3.58739954,18.1261537 C3.58739954,17.3402782 3.80112825,16.9014056 4.22384512,16.6898995 C4.64656199,16.4784021 4.8602907,16.7033856 4.8602907,17.4892699 Z" id="Fill-24" fill="#A08268"></path>
                <path d="M5.81021421,17.6582965 C5.90045656,18.399027 6.3849209,18.5617783 7.10688545,18.2005568 C7.48209369,18.0128102 7.77176578,17.7702278 7.98079688,17.4655279 C8.18974209,17.1608369 8.29425764,16.8596057 8.29425764,16.5618519 C8.29425764,16.2982636 8.22778678,16.1265185 8.09956845,16.0491234 C7.97126423,15.9668563 7.8430459,15.9431585 7.71010419,15.980413 L7.71010419,15.9657618 C7.80981047,15.8816942 7.90951676,15.7634436 7.99977628,15.6060231 C8.09003581,15.4486026 8.13752726,15.2686406 8.13752726,15.0636304 C8.13752726,14.7756293 8.03782097,14.6009982 7.83832252,14.5299666 C7.64354745,14.4565608 7.39183416,14.4946449 7.09262943,14.6443691 C6.46566496,14.9580538 6.0334498,15.555053 5.97645147,16.1937285 L6.56065645,16.0136958 C6.61290564,15.6409829 6.7791429,15.3869619 7.06884076,15.2419949 C7.36813138,15.0922796 7.54384116,15.1751998 7.54384116,15.4534305 C7.54384116,15.7267804 7.34906609,15.9706514 7.04986135,16.1203668 L6.85517216,16.2178058 L6.85517216,16.7352121 L7.07365002,16.6259022 C7.48681707,16.4191444 7.69584816,16.4805468 7.69584816,16.8173557 C7.69584816,17.1346325 7.47737031,17.4294384 7.10207619,17.6171762 C6.71739542,17.8096711 6.49415983,17.6724181 6.43242094,17.2103066 L5.81021421,17.6582965 Z" id="Fill-25" fill="#C0A690"></path>
                <path d="M8.65048647,15.5928547 C8.65048647,16.8424568 9.14918966,17.1786743 9.92811819,16.788936 C10.7070467,16.3991976 11.2057499,15.5639231 11.2057499,14.314321 C11.2057499,13.7480893 11.0870642,13.3779535 10.8543303,13.2015219 C10.6215964,13.0250902 10.3128591,13.0331219 9.92811819,13.2256168 C9.54337731,13.4181118 9.22991654,13.7213995 8.99718266,14.1307138 C8.76444878,14.540037 8.65048647,15.026623 8.65048647,15.5928547 Z M10.5645724,14.6351371 C10.5645724,15.0890934 10.5123575,15.4325217 10.407842,15.6654044 C10.3081357,15.8959217 10.146596,16.0694673 9.92811819,16.1787772 C9.70964033,16.288096 9.54818657,16.2761544 9.44367102,16.1478245 C9.34396473,16.0171291 9.29166402,15.725986 9.29166402,15.2720298 C9.29166402,14.4861455 9.5054185,14.0472817 9.92811819,13.8357756 C10.3508179,13.6242694 10.5645724,13.8492529 10.5645724,14.6351371 Z" id="Fill-26" fill="#A08268"></path>
                <path d="M12.3409073,14.3516197 C12.3409073,14.1905364 12.393208,14.0228425 12.5024469,13.8461461 C12.6116858,13.6694585 12.7636928,13.5348356 12.9488494,13.4421538 C13.3288669,13.2520419 13.5520681,13.3941757 13.5520681,13.7505076 C13.5520681,14.1166011 13.3383995,14.4822444 12.972638,14.6652338 C12.5784504,14.8624771 12.3409073,14.7469978 12.3409073,14.3516197 Z M12.2364776,13.6814795 C12.255457,13.0520536 12.5214263,12.5138533 12.9204232,12.3142093 C13.1958393,12.1763472 13.3716349,12.2397179 13.4523618,12.5020264 L14.0317919,12.0558724 C13.9320856,11.5981563 13.5758568,11.4005422 12.9631054,11.707069 C12.5404057,11.9185399 12.2079655,12.2606355 11.9562523,12.7380336 C11.7092624,13.2130751 11.5857674,13.7044094 11.5857674,14.212063 C11.5857674,14.7831667 11.7139857,15.1534349 11.9705083,15.3228675 C12.2316683,15.4899171 12.5641944,15.4700057 12.972638,15.2656309 C13.3003548,15.1016528 13.5805802,14.8540571 13.8037814,14.5275836 C14.0317919,14.193855 14.1457542,13.8439484 14.1457542,13.477855 C14.1457542,13.1215231 14.0365153,12.8930622 13.8180374,12.8022868 C13.5995596,12.7114673 13.3431229,12.7372392 13.0533649,12.8822238 C12.6401979,13.0889728 12.3551633,13.4365758 12.241201,13.6839773 L12.2364776,13.6814795 Z" id="Fill-27" fill="#C0A690"></path>
                <path d="M14.501983,12.6650426 C14.501983,13.9146535 15.0006862,14.2508798 15.7797006,13.8611415 C16.5586292,13.4714032 17.0573323,12.6360933 17.0573323,11.3865089 C17.0573323,10.8203213 16.9385608,10.450159 16.7058269,10.2737274 C16.473093,10.0972957 16.1643556,10.1053274 15.7797006,10.2978224 C15.3949598,10.4903173 15.081499,10.7935785 14.8487651,11.2029282 C14.6160312,11.6122779 14.501983,12.098855 14.501983,12.6650426 Z M16.4160689,11.7073338 C16.4160689,12.161343 16.3638541,12.5047625 16.2593385,12.7375923 C16.1596323,12.9681184 15.9981785,13.141664 15.7797006,13.2509828 C15.5611369,13.3603015 15.3996831,13.34836 15.2951676,13.22003 C15.1954613,13.0893347 15.1432465,12.7982268 15.1432465,12.3442176 C15.1432465,11.558351 15.3569151,11.1195225 15.7797006,10.9079634 C16.2024003,10.6964926 16.4160689,10.9214672 16.4160689,11.7073338 Z" id="Fill-28" fill="#A08268"></path>
            </g>
        </g>
    </g>
</svg>