<?xml version="1.0" encoding="utf-8"?>
<!-- Generator: Adobe Illustrator 22.0.1, SVG Export Plug-In . SVG Version: 6.00 Build 0)  -->
<svg version="1.1" id="Ebene_1" xmlns="http://www.w3.org/2000/svg" xmlns:xlink="http://www.w3.org/1999/xlink" x="0px" y="0px"
	 viewBox="0 0 200 85" style="enable-background:new 0 0 200 85;" xml:space="preserve">
<style type="text/css">
	.st0{fill:#FFFFFF;}
</style>
<path class="st0" d="M118.1,24c0.5,0.5,1.2,1,2,1.3c0.8,0.3,1.6,0.5,2.5,0.5c1,0,1.9-0.2,2.6-0.5c0.7-0.4,1.4-0.9,1.9-1.5l-1.7-1.2
	c-0.3,0.4-0.7,0.7-1.2,1c-0.5,0.2-1,0.4-1.7,0.4c-0.6,0-1.1-0.1-1.6-0.3s-0.9-0.5-1.2-0.9c-0.3-0.4-0.6-0.8-0.8-1.4
	c-0.2-0.5-0.3-1.1-0.3-1.7s0.1-1.2,0.3-1.7s0.5-1,0.8-1.3c0.4-0.4,0.8-0.7,1.3-0.9c0.5-0.2,1-0.3,1.6-0.3c0.5,0,1,0.1,1.4,0.3
	c0.5,0.2,0.9,0.5,1.2,0.9l1.6-1.2c-0.2-0.3-0.5-0.6-0.8-0.8s-0.7-0.4-1.1-0.6c-0.4-0.1-0.8-0.3-1.2-0.3c-0.4-0.1-0.8-0.1-1.2-0.1
	c-0.9,0-1.7,0.1-2.5,0.4c-0.8,0.3-1.4,0.7-2,1.2c-0.6,0.5-1,1.2-1.3,1.9s-0.5,1.6-0.5,2.5s0.2,1.7,0.5,2.5
	C117.1,22.9,117.5,23.5,118.1,24z"/>
<path class="st0" d="M130.9,21.2h-0.1c0-0.1,0-0.3,0.1-0.6c0.1-0.2,0.2-0.5,0.3-0.7c0.2-0.2,0.4-0.4,0.6-0.6
	c0.3-0.2,0.6-0.2,1.1-0.2c0.1,0,0.2,0,0.3,0c0.1,0,0.2,0,0.3,0.1v-1.8c-0.1,0-0.1,0-0.2,0c-0.1,0-0.2,0-0.2,0c-0.5,0-1,0.1-1.4,0.4
	c-0.4,0.3-0.7,0.7-0.9,1.1v-1.3h-1.9v7.9h2V21.2z"/>
<path class="st0" d="M137.2,26.5c-0.1,0.2-0.2,0.4-0.2,0.5c-0.1,0.2-0.2,0.3-0.3,0.4c-0.1,0.1-0.2,0.2-0.4,0.2
	c-0.1,0-0.3,0.1-0.5,0.1c-0.1,0-0.2,0-0.4,0c-0.1,0-0.3,0-0.4-0.1l-0.2,1.7c0.2,0,0.3,0.1,0.5,0.1c0.2,0,0.3,0,0.5,0
	c0.4,0,0.8,0,1.1-0.1c0.3-0.1,0.6-0.2,0.8-0.4c0.2-0.2,0.4-0.4,0.6-0.7s0.3-0.6,0.5-1l3.7-9.6h-2.1l-2,5.7l-2.2-5.7H134l3.4,7.9
	L137.2,26.5z"/>
<path class="st0" d="M146.5,24.4c0.3,0.4,0.6,0.7,1.1,0.9c0.5,0.2,1,0.3,1.5,0.3c0.6,0,1.1-0.1,1.6-0.3c0.5-0.2,0.9-0.5,1.2-0.9
	c0.3-0.4,0.6-0.8,0.8-1.3s0.3-1.1,0.3-1.6c0-0.6-0.1-1.1-0.3-1.6s-0.4-0.9-0.8-1.3c-0.4-0.4-0.7-0.7-1.2-0.9s-1-0.3-1.5-0.3
	c-0.4,0-0.7,0-1,0.1c-0.3,0.1-0.6,0.2-0.8,0.3c-0.2,0.1-0.4,0.3-0.6,0.4c-0.2,0.2-0.3,0.3-0.4,0.5v-1.1h-1.9v11.8h2V24.4z
	 M146.5,20.6c0.1-0.3,0.3-0.6,0.5-0.8c0.2-0.2,0.4-0.4,0.7-0.6s0.6-0.2,1-0.2c0.4,0,0.7,0.1,1,0.2s0.5,0.3,0.7,0.6
	c0.2,0.2,0.3,0.5,0.4,0.8c0.1,0.3,0.1,0.6,0.1,0.9s0,0.6-0.1,0.9c-0.1,0.3-0.2,0.6-0.4,0.8c-0.2,0.2-0.4,0.4-0.7,0.6
	c-0.3,0.2-0.6,0.2-1,0.2c-0.4,0-0.7-0.1-1-0.2c-0.3-0.1-0.5-0.3-0.7-0.6c-0.2-0.2-0.4-0.5-0.5-0.8c-0.1-0.3-0.2-0.6-0.2-0.9
	C146.4,21.2,146.4,20.9,146.5,20.6z"/>
<path class="st0" d="M157,25.4c0.3,0.1,0.8,0.2,1.3,0.2c0.2,0,0.4,0,0.7-0.1c0.2,0,0.4-0.1,0.6-0.2l-0.1-1.5
	c-0.1,0.1-0.3,0.1-0.4,0.1c-0.2,0-0.3,0-0.4,0c-0.4,0-0.7-0.1-0.8-0.3c-0.1-0.2-0.2-0.5-0.2-0.9V19h2v-1.6h-2v-2.1h-1.9v2.3h-1.4
	v1.6h1.4v3.7c0,0.4,0,0.7,0.1,1.1c0.1,0.3,0.2,0.6,0.4,0.9C156.4,25.1,156.7,25.3,157,25.4z"/>
<path class="st0" d="M162.5,24.5c0.4,0.4,0.8,0.7,1.4,0.9c0.5,0.2,1.1,0.3,1.7,0.3c0.6,0,1.1-0.1,1.7-0.3c0.5-0.2,1-0.5,1.4-0.9
	c0.4-0.4,0.7-0.8,0.9-1.3s0.3-1.1,0.3-1.7c0-0.6-0.1-1.2-0.3-1.7s-0.5-0.9-0.9-1.3c-0.4-0.4-0.8-0.6-1.4-0.8
	c-0.5-0.2-1.1-0.3-1.7-0.3c-0.6,0-1.1,0.1-1.7,0.3c-0.5,0.2-1,0.5-1.4,0.8c-0.4,0.4-0.7,0.8-0.9,1.3c-0.2,0.5-0.3,1.1-0.3,1.7
	c0,0.6,0.1,1.2,0.3,1.7C161.8,23.7,162.1,24.1,162.5,24.5z M163.4,20.6c0.1-0.3,0.2-0.6,0.4-0.8c0.2-0.2,0.4-0.4,0.7-0.6
	c0.3-0.1,0.6-0.2,1-0.2c0.4,0,0.7,0.1,1,0.2s0.5,0.3,0.7,0.6c0.2,0.2,0.3,0.5,0.4,0.8c0.1,0.3,0.1,0.6,0.1,0.9s0,0.6-0.1,0.9
	c-0.1,0.3-0.2,0.6-0.4,0.8c-0.2,0.2-0.4,0.4-0.7,0.6c-0.3,0.2-0.6,0.2-1,0.2c-0.4,0-0.7-0.1-1-0.2c-0.3-0.2-0.5-0.4-0.7-0.6
	s-0.3-0.5-0.4-0.8c-0.1-0.3-0.1-0.6-0.1-0.9S163.3,20.9,163.4,20.6z"/>
<polygon class="st0" points="114.2,41.9 119.3,41.9 119.3,40.2 114.2,40.2 114.2,37 119.7,37 119.7,35.2 112.1,35.2 112.1,46.8 
	114.2,46.8 "/>
<rect x="121.8" y="39" class="st0" width="2" height="7.9"/>
<path class="st0" d="M123.7,35.4c-0.2-0.2-0.6-0.3-0.9-0.3c-0.4,0-0.7,0.1-0.9,0.4c-0.2,0.2-0.4,0.5-0.4,0.8c0,0.3,0.1,0.6,0.4,0.8
	c0.2,0.2,0.5,0.4,0.9,0.4c0.4,0,0.7-0.1,0.9-0.3s0.4-0.5,0.4-0.8C124.1,35.9,124,35.7,123.7,35.4z"/>
<path class="st0" d="M130.6,40.4c0.3,0,0.6,0.1,0.8,0.2c0.2,0.1,0.3,0.3,0.5,0.5c0.1,0.2,0.2,0.4,0.2,0.7c0,0.3,0.1,0.5,0.1,0.7v4.4
	h2V42c0-0.4-0.1-0.8-0.2-1.2c-0.1-0.4-0.3-0.7-0.5-1c-0.2-0.3-0.5-0.5-0.9-0.7c-0.4-0.2-0.8-0.3-1.3-0.3c-0.6,0-1.1,0.2-1.5,0.5
	c-0.4,0.3-0.7,0.6-0.9,1V39H127v7.9h2v-4.3c0-0.3,0-0.5,0.1-0.8c0.1-0.3,0.2-0.5,0.3-0.7c0.1-0.2,0.3-0.4,0.6-0.5
	C130,40.4,130.3,40.4,130.6,40.4z"/>
<path class="st0" d="M140.9,46.7c0.4-0.2,0.8-0.5,1-0.9v1h1.8V42c0-0.4-0.1-0.8-0.2-1.2c-0.1-0.4-0.3-0.8-0.6-1.1
	c-0.3-0.3-0.6-0.6-1.1-0.8s-1-0.3-1.7-0.3c-0.6,0-1.2,0.1-1.8,0.3c-0.6,0.2-1.1,0.5-1.6,0.9l1,1.2c0.3-0.3,0.6-0.5,1-0.6
	c0.4-0.2,0.8-0.3,1.2-0.3c0.5,0,0.9,0.1,1.3,0.4c0.4,0.2,0.5,0.6,0.5,1.1v0.2c-0.6,0-1.2,0-1.9,0.1c-0.6,0.1-1.2,0.2-1.7,0.4
	c-0.5,0.2-1,0.5-1.3,0.8c-0.3,0.4-0.5,0.8-0.5,1.4c0,0.5,0.1,0.8,0.3,1.2c0.2,0.3,0.4,0.6,0.7,0.8c0.3,0.2,0.6,0.3,1,0.4
	c0.3,0.1,0.7,0.1,1,0.1C140,47,140.5,46.9,140.9,46.7z M138.6,45c-0.1-0.1-0.1-0.3-0.1-0.5c0-0.3,0.1-0.5,0.3-0.7
	c0.2-0.2,0.4-0.3,0.7-0.4c0.3-0.1,0.6-0.2,1-0.2c0.4,0,0.7,0,1,0h0.4v0.3c0,0.6-0.2,1.1-0.5,1.5c-0.4,0.4-0.9,0.5-1.5,0.5
	c-0.2,0-0.3,0-0.5,0c-0.3,0-0.4-0.1-0.5-0.2C138.8,45.2,138.7,45.1,138.6,45z"/>
<path class="st0" d="M153.2,39.7c-0.2-0.3-0.5-0.5-0.9-0.7c-0.4-0.2-0.8-0.3-1.3-0.3c-0.6,0-1.1,0.2-1.5,0.5c-0.4,0.3-0.7,0.6-0.9,1
	V39h-1.9v7.9h2v-4.3c0-0.3,0-0.5,0.1-0.8c0.1-0.3,0.2-0.5,0.3-0.7c0.1-0.2,0.3-0.4,0.6-0.5c0.2-0.1,0.5-0.2,0.8-0.2
	c0.3,0,0.6,0.1,0.8,0.2c0.2,0.1,0.3,0.3,0.5,0.5c0.1,0.2,0.2,0.4,0.2,0.7c0,0.3,0.1,0.5,0.1,0.7v4.4h2V42c0-0.4-0.1-0.8-0.2-1.2
	C153.6,40.3,153.5,40,153.2,39.7z"/>
<path class="st0" d="M163.7,46l-1.2-1.2c-0.2,0.2-0.4,0.4-0.7,0.5c-0.3,0.1-0.6,0.2-0.9,0.2c-0.4,0-0.7-0.1-1-0.2
	c-0.3-0.1-0.5-0.3-0.7-0.6c-0.2-0.2-0.3-0.5-0.4-0.8c-0.1-0.3-0.1-0.6-0.1-0.9c0-0.3,0-0.6,0.1-0.9c0.1-0.3,0.2-0.6,0.4-0.8
	c0.2-0.2,0.4-0.4,0.7-0.6c0.3-0.1,0.6-0.2,1-0.2c0.3,0,0.6,0.1,0.9,0.2c0.3,0.1,0.5,0.3,0.7,0.6l1.3-1.2c-0.3-0.4-0.7-0.7-1.3-0.9
	c-0.5-0.2-1.1-0.3-1.7-0.3c-0.6,0-1.1,0.1-1.6,0.3c-0.7,0-1.2,0.3-1.6,0.7c-0.4,0.4-0.7,0.8-0.9,1.3s-0.3,1.1-0.3,1.7
	c0,0.7,0.1,1.2,0.3,1.8c0.2,0.5,0.5,1,0.9,1.3c0.4,0.4,0.8,0.6,1.4,0.8c0.5,0.2,1.1,0.3,1.7,0.3s1.1-0.1,1.7-0.3
	C162.9,46.6,163.3,46.3,163.7,46z"/>
<path class="st0" d="M171.3,44.4c-0.2,0.3-0.5,0.6-0.8,0.7c-0.3,0.2-0.8,0.3-1.2,0.3c-0.3,0-0.6-0.1-0.8-0.1
	c-0.3-0.1-0.5-0.2-0.7-0.4c-0.2-0.2-0.4-0.4-0.5-0.6c-0.1-0.2-0.2-0.5-0.2-0.8h6c0-0.1,0-0.2,0-0.3V43c0-0.7-0.1-1.3-0.3-1.9
	c-0.2-0.5-0.5-1-0.8-1.3c-0.3-0.4-0.7-0.6-1.2-0.8s-1-0.3-1.5-0.3c-0.6,0-1.1,0.1-1.7,0.3c-0.5,0.2-0.9,0.5-1.3,0.9
	c-0.4,0.4-0.7,0.8-0.9,1.3s-0.3,1.1-0.3,1.7c0,0.6,0.1,1.2,0.3,1.7s0.5,0.9,0.9,1.3c0.4,0.4,0.8,0.6,1.3,0.8s1.1,0.3,1.7,0.3
	c1.5,0,2.6-0.5,3.4-1.6L171.3,44.4z M167.7,40.7c0.4-0.4,0.9-0.5,1.5-0.5c0.3,0,0.6,0.1,0.8,0.2c0.2,0.1,0.4,0.2,0.6,0.4
	c0.2,0.2,0.3,0.4,0.3,0.6c0.1,0.2,0.1,0.5,0.1,0.7h-4C167,41.6,167.3,41.1,167.7,40.7z"/>
<path class="st0" d="M114.7,66.3c-0.5,0.2-1,0.4-1.7,0.4c-0.6,0-1.1-0.1-1.6-0.3s-0.9-0.5-1.2-0.9c-0.3-0.4-0.6-0.8-0.8-1.4
	c-0.2-0.5-0.3-1.1-0.3-1.7c0-0.6,0.1-1.2,0.3-1.7c0.2-0.5,0.5-1,0.8-1.3c0.4-0.4,0.8-0.7,1.3-0.9s1-0.3,1.6-0.3c0.5,0,1,0.1,1.4,0.3
	c0.5,0.2,0.9,0.5,1.2,0.9l1.6-1.2c-0.2-0.3-0.5-0.6-0.8-0.8s-0.7-0.4-1.1-0.6c-0.4-0.1-0.8-0.3-1.2-0.3c-0.4-0.1-0.8-0.1-1.2-0.1
	c-0.9,0-1.7,0.1-2.5,0.4c-0.8,0.3-1.4,0.7-2,1.2c-0.6,0.5-1,1.2-1.3,1.9s-0.5,1.6-0.5,2.5s0.2,1.7,0.5,2.5c0.3,0.7,0.7,1.4,1.3,1.9
	c0.5,0.5,1.2,1,2,1.3s1.6,0.5,2.5,0.5c1,0,1.9-0.2,2.6-0.5c0.7-0.4,1.4-0.9,1.9-1.5l-1.7-1.2C115.6,65.7,115.2,66,114.7,66.3z"/>
<path class="st0" d="M126,61.2c-0.4-0.4-0.8-0.6-1.4-0.8c-0.5-0.2-1.1-0.3-1.7-0.3c-0.6,0-1.2,0.1-1.7,0.3s-1,0.5-1.4,0.8
	c-0.4,0.4-0.7,0.8-0.9,1.3s-0.3,1.1-0.3,1.7s0.1,1.2,0.3,1.7c0.2,0.5,0.5,1,0.9,1.3c0.4,0.4,0.8,0.7,1.4,0.9
	c0.5,0.2,1.1,0.3,1.7,0.3c0.6,0,1.1-0.1,1.7-0.3c0.5-0.2,1-0.5,1.4-0.9s0.7-0.8,0.9-1.3c0.2-0.5,0.3-1.1,0.3-1.7s-0.1-1.2-0.3-1.7
	S126.4,61.6,126,61.2z M125.1,65.2c-0.1,0.3-0.2,0.6-0.4,0.8s-0.4,0.4-0.7,0.6c-0.3,0.2-0.6,0.2-1,0.2s-0.7-0.1-1-0.2
	c-0.3-0.2-0.5-0.4-0.7-0.6c-0.2-0.2-0.3-0.5-0.4-0.8c-0.1-0.3-0.1-0.6-0.1-0.9c0-0.3,0-0.6,0.1-0.9c0.1-0.3,0.2-0.6,0.4-0.8
	c0.2-0.2,0.4-0.4,0.7-0.6c0.3-0.1,0.6-0.2,1-0.2s0.7,0.1,1,0.2c0.3,0.1,0.5,0.3,0.7,0.6c0.2,0.2,0.3,0.5,0.4,0.8
	c0.1,0.3,0.1,0.6,0.1,0.9C125.2,64.6,125.2,64.9,125.1,65.2z"/>
<path class="st0" d="M136.4,61.1c-0.2-0.3-0.5-0.5-0.9-0.7c-0.4-0.2-0.8-0.3-1.3-0.3c-0.6,0-1.1,0.2-1.5,0.5c-0.4,0.3-0.7,0.6-0.9,1
	v-1.3h-1.9v7.9h2v-4.3c0-0.3,0-0.5,0.1-0.8c0.1-0.3,0.2-0.5,0.3-0.7c0.1-0.2,0.3-0.4,0.6-0.5c0.2-0.1,0.5-0.2,0.8-0.2
	c0.3,0,0.6,0.1,0.8,0.2c0.2,0.1,0.3,0.3,0.5,0.5c0.1,0.2,0.2,0.4,0.2,0.7c0,0.3,0.1,0.5,0.1,0.7v4.4h2v-4.9c0-0.4-0.1-0.8-0.2-1.2
	C136.8,61.7,136.6,61.4,136.4,61.1z"/>
<path class="st0" d="M143.5,55.6c-0.6,0-1.1,0.1-1.5,0.3c-0.4,0.2-0.7,0.5-1,0.8c-0.2,0.3-0.4,0.7-0.5,1.1c-0.1,0.4-0.2,0.9-0.2,1.4
	v1.2h-1.5V62h1.5v6.3h2V62h1.8v-1.6h-1.8v-1.3c0-0.2,0-0.4,0.1-0.6c0-0.2,0.1-0.4,0.2-0.6c0.1-0.2,0.2-0.3,0.4-0.4
	c0.2-0.1,0.4-0.2,0.7-0.2c0.1,0,0.3,0,0.4,0c0.1,0,0.2,0,0.4,0.1l0.1-1.7c-0.2,0-0.3-0.1-0.5-0.1C143.9,55.6,143.7,55.6,143.5,55.6z
	"/>
<path class="st0" d="M152.4,61.2c-0.3-0.4-0.7-0.6-1.2-0.8s-1-0.3-1.5-0.3c-0.6,0-1.1,0.1-1.7,0.3c-0.5,0.2-0.9,0.5-1.3,0.9
	c-0.4,0.4-0.7,0.8-0.9,1.3c-0.2,0.5-0.3,1.1-0.3,1.7c0,0.6,0.1,1.2,0.3,1.7c0.2,0.5,0.5,0.9,0.9,1.3c0.4,0.4,0.8,0.6,1.3,0.8
	s1.1,0.3,1.7,0.3c1.5,0,2.6-0.5,3.4-1.6l-1.3-1.1c-0.2,0.3-0.5,0.6-0.8,0.7c-0.3,0.2-0.8,0.3-1.2,0.3c-0.3,0-0.6-0.1-0.8-0.1
	c-0.3-0.1-0.5-0.2-0.7-0.4c-0.2-0.2-0.4-0.4-0.5-0.6c-0.1-0.2-0.2-0.5-0.2-0.8h6c0-0.1,0-0.2,0-0.3v-0.3c0-0.7-0.1-1.3-0.3-1.9
	C153,62,152.7,61.5,152.4,61.2z M147.4,63.5c0-0.6,0.3-1,0.7-1.4c0.4-0.4,0.9-0.5,1.5-0.5c0.3,0,0.6,0.1,0.8,0.2
	c0.2,0.1,0.4,0.2,0.6,0.4s0.3,0.4,0.3,0.6c0.1,0.2,0.1,0.5,0.1,0.7H147.4z"/>
<path class="st0" d="M160.2,60.1c-0.5,0-1,0.1-1.4,0.4c-0.4,0.3-0.7,0.7-0.9,1.1v-1.3H156v7.9h2V64c0-0.1,0-0.3,0.1-0.6
	c0.1-0.2,0.2-0.5,0.3-0.7c0.2-0.2,0.4-0.4,0.6-0.6c0.3-0.2,0.6-0.2,1.1-0.2c0.1,0,0.2,0,0.3,0c0.1,0,0.2,0,0.3,0.1v-1.8
	c-0.1,0-0.1,0-0.2,0C160.4,60.1,160.3,60.1,160.2,60.1z"/>
<path class="st0" d="M168.7,61.2c-0.3-0.4-0.7-0.6-1.2-0.8s-1-0.3-1.5-0.3c-0.6,0-1.1,0.1-1.7,0.3c-0.5,0.2-0.9,0.5-1.3,0.9
	c-0.4,0.4-0.7,0.8-0.9,1.3c-0.2,0.5-0.3,1.1-0.3,1.7c0,0.6,0.1,1.2,0.3,1.7c0.2,0.5,0.5,0.9,0.9,1.3c0.4,0.4,0.8,0.6,1.3,0.8
	s1.1,0.3,1.7,0.3c1.5,0,2.6-0.5,3.4-1.6l-1.3-1.1c-0.2,0.3-0.5,0.6-0.8,0.7c-0.3,0.2-0.8,0.3-1.2,0.3c-0.3,0-0.6-0.1-0.8-0.1
	c-0.3-0.1-0.5-0.2-0.7-0.4c-0.2-0.2-0.4-0.4-0.5-0.6c-0.1-0.2-0.2-0.5-0.2-0.8h6c0-0.1,0-0.2,0-0.3v-0.3c0-0.7-0.1-1.3-0.3-1.9
	C169.3,62,169.1,61.5,168.7,61.2z M163.8,63.5c0-0.6,0.3-1,0.7-1.4c0.4-0.4,0.9-0.5,1.5-0.5c0.3,0,0.6,0.1,0.8,0.2
	c0.2,0.1,0.4,0.2,0.6,0.4s0.3,0.4,0.3,0.6c0.1,0.2,0.1,0.5,0.1,0.7H163.8z"/>
<path class="st0" d="M178.9,61.1c-0.2-0.3-0.5-0.5-0.9-0.7c-0.4-0.2-0.8-0.3-1.3-0.3c-0.6,0-1.1,0.2-1.5,0.5c-0.4,0.3-0.7,0.6-0.9,1
	v-1.3h-1.9v7.9h2v-4.3c0-0.3,0-0.5,0.1-0.8c0.1-0.3,0.2-0.5,0.3-0.7c0.1-0.2,0.3-0.4,0.6-0.5c0.2-0.1,0.5-0.2,0.8-0.2
	c0.3,0,0.6,0.1,0.8,0.2c0.2,0.1,0.3,0.3,0.5,0.5c0.1,0.2,0.2,0.4,0.2,0.7c0,0.3,0.1,0.5,0.1,0.7v4.4h2v-4.9c0-0.4-0.1-0.8-0.2-1.2
	C179.3,61.7,179.2,61.4,178.9,61.1z"/>
<path class="st0" d="M187.5,66.6c-0.3,0.1-0.6,0.2-0.9,0.2c-0.4,0-0.7-0.1-1-0.2c-0.3-0.1-0.5-0.3-0.7-0.6c-0.2-0.2-0.3-0.5-0.4-0.8
	s-0.1-0.6-0.1-0.9c0-0.3,0-0.6,0.1-0.9c-0.2-0.3,0-0.6,0.1-0.9c0.2-0.2,0.4-0.4,0.7-0.6c0.3-0.1,0.6-0.2,1-0.2
	c0.3,0,0.6,0.1,0.9,0.2c0.3,0.1,0.5,0.3,0.7,0.6l1.3-1.2c-0.3-0.4-0.7-0.7-1.3-0.9c-0.5-0.2-1.1-0.3-1.7-0.3c-0.6,0-1.1,0.1-1.6,0.3
	s-1,0.5-1.3,0.8c-0.4,0.4-0.7,0.8-0.9,1.3c-0.2,0.5-0.3,1.1-0.3,1.7c0,0.7,0.1,1.2,0.3,1.8c0.2,0.5,0.5,1,0.9,1.3
	c0.4,0.4,0.8,0.6,1.4,0.8c0.5,0.2,1.1,0.3,1.7,0.3c0.6,0,1.1-0.1,1.7-0.3c0.5-0.2,0.9-0.5,1.3-0.8l-1.2-1.2
	C188,66.3,187.8,66.5,187.5,66.6z"/>
<path class="st0" d="M198.4,62.5c-0.2-0.5-0.5-1-0.8-1.3c-0.3-0.4-0.7-0.6-1.2-0.8s-1-0.3-1.5-0.3c-0.6,0-1.1,0.1-1.7,0.3
	c-0.5,0.2-0.9,0.5-1.3,0.9c-0.4,0.4-0.7,0.8-0.9,1.3s-0.3,1.1-0.3,1.7c0,0.6,0.1,1.2,0.3,1.7s0.5,0.9,0.9,1.3
	c0.4,0.4,0.8,0.6,1.3,0.8s1.1,0.3,1.7,0.3c1.5,0,2.6-0.5,3.4-1.6l-1.3-1.1c-0.2,0.3-0.5,0.6-0.8,0.7c-0.3,0.2-0.8,0.3-1.2,0.3
	c-0.3,0-0.6-0.1-0.8-0.1c-0.3-0.1-0.5-0.2-0.7-0.4c-0.2-0.2-0.4-0.4-0.5-0.6c-0.1-0.2-0.2-0.5-0.2-0.8h6c0-0.1,0-0.2,0-0.3v-0.3
	C198.7,63.7,198.6,63,198.4,62.5z M192.7,63.5c0-0.6,0.3-1,0.7-1.4c0.4-0.4,0.9-0.5,1.5-0.5c0.3,0,0.6,0.1,0.8,0.2
	c0.2,0.1,0.4,0.2,0.6,0.4s0.3,0.4,0.3,0.6c0.1,0.2,0.1,0.5,0.1,0.7H192.7z"/>
<path class="st0" d="M66.6,30c0.2-0.6,0.4-1.2,0.7-1.8c1.6-3.6,3.7-6.6,6.4-9.2c1.7-1.6,3.7-3,5.9-4.2H43.9L31.2,68.3h13l3.9-16.5
	h0.1h18.9c-0.7-1.6-1.2-3.3-1.5-5.1c-0.4-2.1-0.7-4.2-0.7-6.5c0-1.1,0-2.2,0.1-3.2H51.5l1.6-6.9L66.6,30z"/>
<path class="st0" d="M29.6,13.6c-3.9,0-7.6,0.7-11.1,1.9c-3.5,1.3-6.5,3.1-9,5.5c-2.5,2.4-4.6,5.3-6,8.7C2,33.1,1.3,36.9,1.3,41
	c0,4.1,0.7,7.9,2.2,11.2C5,55.6,7,58.5,9.6,61c2.5,2.4,5.5,4.3,9,5.6c2.3,0.9,4.6,1.4,7.1,1.7l12.7-53.6
	C35.6,14,32.7,13.6,29.6,13.6z"/>
<path class="st0" d="M99.1,13.6c-3.9,0-7.6,0.7-11.1,1.9c-3.5,1.3-6.5,3.1-9,5.5c-2.5,2.4-4.6,5.3-6,8.7c-1.5,3.4-2.2,7.2-2.2,11.3
	c0,4.1,0.7,7.9,2.2,11.2c1.5,3.4,3.5,6.2,6,8.7c2.5,2.4,5.5,4.3,9,5.6c2.3,0.9,4.6,1.4,7.1,1.7l12.7-53.6
	C105.1,14,102.1,13.6,99.1,13.6z"/>
</svg>
