
<svg width="69px" height="51px" viewBox="0 0 69 51" version="1.1" xmlns="http://www.w3.org/2000/svg" xmlns:xlink="http://www.w3.org/1999/xlink">
    <!-- Generator: Sketch 50.2 (55047) - http://www.bohemiancoding.com/sketch -->
    <title>icon/donations</title>
    <desc>Created with Sketch.</desc>
    <defs></defs>
    <g id="icon/donations" stroke="none" stroke-width="1" fill="none" fill-rule="evenodd">
        <g id="donations_betka_v2" transform="translate(1.000000, 0.000000)">
            <path d="M48.4,0.6 C48.4,0.6 48.9,0.4 49.2,0.4 C51.1,0 53.4,0.4 56,1.6 C62.4,4.6 67.7,11.8 67.7,17.7 C67.7,19.6 67.1,21.2 66.1,22.3 C66.1,22.3 65.9,22.6 65.7,22.7 C65.5,22.9 65.3,23 65.3,23 L64.6,23.3 C64.6,23.3 64.5,23.3 64.5,23.3 L57,27 L54,28.5 L37.4,6.5 L39.8,5.3 L48.4,0.6 Z" id="Shape" stroke="#C0A690" stroke-width="0.56" fill="#E6DED3" fill-rule="nonzero" stroke-linecap="round" stroke-linejoin="round"></path>
            <path d="M45.6,6.9 C51.9,9.8 57,16.9 57,22.7 C57,28.5 51.9,30.9 45.7,28 C39.4,25 34.3,18 34.3,12.1 C34.3,6.2 39.4,4 45.6,6.9 Z" id="Shape" stroke="#C0A690" stroke-width="0.56" fill="#FFFFFF" fill-rule="nonzero" stroke-linecap="round" stroke-linejoin="round"></path>
            <path d="M52.8,3.3 C54.2,3.3 55.3,4 55.3,4.8 C55.3,5.6 54.2,6.3 52.8,6.3 C51.4,6.3 50.3,5.6 50.3,4.8 C50.3,4 51.4,3.3 52.8,3.3 Z" id="Shape" fill="#A08268" fill-rule="nonzero"></path>
            <path d="M37.3,6.4 C39.4,5.3 42.3,5.4 45.6,6.9 C51.9,9.8 57,16.9 57,22.7 C57,25.5 55.9,27.4 54,28.4" id="Shape" stroke="#C0A690" stroke-width="0.56" stroke-linecap="round" stroke-linejoin="round"></path>
            <path d="M37.7,6.2 L39.7,5.2 L48.4,0.6 C48.4,0.6 48.9,0.4 49.2,0.4 C51.1,0 53.4,0.4 56,1.6 C62.4,4.6 67.7,11.8 67.7,17.7 C67.7,19.6 67.1,21.2 66.1,22.3 C66.1,22.3 65.9,22.6 65.7,22.7 C65.5,22.9 65.3,23 65.3,23 L64.6,23.3 C64.6,23.3 64.5,23.3 64.5,23.3 L57,27 L54.2,28.4" id="Shape" stroke="#C0A690" stroke-width="0.56" stroke-linecap="round" stroke-linejoin="round"></path>
            <g id="Group" transform="translate(0.000000, 7.000000)">
                <path d="M3,28.6 C3,28.6 1,28.5 1,26.6 C1,24.7 3.9,23.2 3.9,23.2 L15.8,15 L19,11.8 C19.3,11.5 21.1,10 21.4,9.7 L28.2,4.9 C29.5,4 30.8,3.2 32.2,2.6 L34.4,1.7 L34.7,1.5 C36.7,0.1 39.8,-1.77635684e-15 43.3,1.6 C49.3,4.4 54.2,11.2 54.2,16.8 C54.2,19.1 53.4,20.8 52,21.9 L51.5,22.3 C51.5,22.3 50.9,23.5 50.1,26.1 C49.2,29.2 47.5,32.4 46.1,33.5 C43.5,35.6 37.9,38.6 37.9,38.6 C37.9,38.6 30.6,40.1 28.6,40.3 C28.3,40.3 26.6,40.4 26.4,38.1 C26.4,38.1 14.8,43.4 12.6,43.4 C10.4,43.4 9.6,43.6 8.9,42.9 C8.1,42.2 7.5,41.5 8,40.9 C8.5,40.3 8.6,40.1 8.6,40.1 L8.3,39.6 C8.3,39.6 4.4,40.7 3.1,39.2 C1.9,37.6 3.1,35.9 3.9,35.5 C4.7,35.1 4.7,34.6 4.7,34.6 L4.3,34.3 C4.3,34.3 1.3,35.1 0.8,33.8 C0.3,32.5 0.1,31.5 0.8,30.7 C1.5,29.9 3,28.6 3,28.6 Z" id="Shape" fill="#FFFFFF" fill-rule="nonzero"></path>
                <path d="M35.3,39.3 L35.3,39 C35.1,37.9 34.9,37.3 34.1,36.5 L34,36.4 C34,36.4 30.7,36.8 29.8,38 C28.9,39.2 29.3,40.4 29.3,40.4 L35.3,39.3 Z" id="Shape" fill="#E6DED3" fill-rule="nonzero"></path>
                <path d="M26.6,38.1 C26.9,40.4 28.6,40.3 28.8,40.3 C30.8,40.1 38.1,38.6 38.1,38.6 C38.1,38.6 43.7,35.6 46.3,33.5 C47.7,32.4 49.4,29.2 50.3,26.1 C51.1,23.5 51.7,22.3 51.7,22.3 L52.2,21.9 C53.6,20.8 54.4,19.1 54.4,16.8 C54.4,11.2 49.5,4.4 43.5,1.6 C39.9,-3.33066907e-16 36.8,-3.33066907e-16 34.8,1.5 L34.5,1.7 L32.3,2.6 C30.9,3.2 29.5,4 28.3,4.9 L21.5,9.7 C21.1,10 19.4,11.5 19.1,11.8 L15.8,15 L3.9,23.1 C3.9,23.1 0.9,24.6 1,26.5 C1.1,28.4 3,28.5 3,28.5" id="Shape" stroke="#C0A690" stroke-width="0.56" fill="#FFFFFF" fill-rule="nonzero" stroke-linecap="round" stroke-linejoin="round"></path>
                <path d="M34,39.3 L34,39.1 C33.8,38.2 33.6,37.6 33,37 L32.9,36.9 C32.9,36.9 30.1,37.3 29.3,38.3 C28.5,39.3 28.9,40.3 28.9,40.3 L34,39.3 Z" id="Shape" fill="#E6DED3" fill-rule="nonzero"></path>
                <path d="M28.6,40.2 C28.7,40.2 28.7,40.2 28.8,40.2 C30.2,40.1 34.4,39.3 36.6,38.8" id="Shape" stroke="#C0A690" stroke-width="0.56" stroke-linecap="round" stroke-linejoin="round"></path>
                <path d="M26.5,38.2 C26.5,38.2 26.5,37.8 26.5,37.8 C26.3,35.4 30.7,33.9 32.4,33.3 C34.1,32.7 37.9,31.2 37.9,31.2 C37.9,31.2 39.2,26 40.1,25.2" id="Shape" stroke="#C0A690" stroke-width="0.56" stroke-linecap="round" stroke-linejoin="round"></path>
                <path d="M26.5,38.2 L14.6,43 C14.6,43 10.5,44.1 8.7,42.6 C6.9,41.1 8.9,39.1 10.3,38.2 C11.6,37.4 19.7,33 19.7,33 L26.1,29" id="Shape" stroke="#C0A690" stroke-width="0.56" stroke-linecap="round" stroke-linejoin="round"></path>
                <path d="M36.6,22 C35.7,20 35.3,17.8 35.4,15.6 C35.4,14.5 35.6,13.4 36.1,12.3 C36.5,11.3 37.2,10.3 38,9.6 C38,9.6 38,9.6 38,9.6 C38,9.6 38,9.6 38,9.6 C37.5,10.6 36.9,11.5 36.6,12.5 C36.3,13.5 35.9,14.5 35.8,15.6 C35.7,16.7 35.7,17.7 35.9,18.8 C36,19.9 36.3,20.9 36.6,22 C36.6,22 36.6,22 36.6,22 C36.6,22 36.6,22 36.6,22 Z" id="Shape" fill="#C0A690" fill-rule="nonzero"></path>
                <path d="M6,33.8 C4.8,34.3 1.7,35.6 0.6,33.6 C-0.7,31.2 2,29.3 3.5,28.5 C4.8,27.7 13,23 13,23 L18.3,19.6" id="Shape" stroke="#C0A690" stroke-width="0.56" stroke-linecap="round" stroke-linejoin="round"></path>
                <path d="M9,39.4 L7.9,39.8 C7.9,39.8 4,40.9 2.9,38.9 C1.5,36 6.2,33.6 7.8,32.9 C9.6,32.1 16.8,27.7 16.8,27.7 L21.9,24.8" id="Shape" stroke="#C0A690" stroke-width="0.56" stroke-linecap="round" stroke-linejoin="round"></path>
            </g>
        </g>
        <g id="Group-2" transform="translate(10.000000, 6.000000)">
            <g id="heart-copy-2" transform="translate(0.000000, 7.200000)">
                <path d="M8.46584683,0.0793164179 C6.22313436,-0.204304478 4.76899002,2.5904194 4.76899002,2.5904194 C4.76899002,2.5904194 3.33382687,1.23031791 1.0911144,3.72642537 C-0.812945873,6.11299701 0.696753167,9.4216791 1.30824069,9.69570896 C1.29188292,9.75843134 4.31783954,11.2562328 4.53974971,11.2896493 C4.58666257,11.049797 4.32424376,10.564003 4.76891286,10.6021388 C7.73854319,7.41859701 8.61731056,5.89369701 9.26845797,4.5562791 C9.34415125,4.40076716 12.1046798,1.6339791 12.1046798,1.6339791 L9.20626756,0.319092537 C9.20626756,0.319092537 8.76360461,0.117071642 8.46576967,0.0793925373 L8.46584683,0.0793164179 Z" id="Fill-19" stroke="#C0A690" stroke-width="0.600000024" fill="#E6DED3" stroke-linecap="round" stroke-linejoin="round"></path>
                <path d="M8.46584683,0.0793164179 C6.22313436,-0.204304478 4.76899002,2.5904194 4.76899002,2.5904194 C4.76899002,2.5904194 3.33382687,1.23031791 1.0911144,3.72642537 C-0.812945873,6.11299701 0.696753167,9.4216791 1.30824069,9.69570896 C1.29188292,9.75843134 4.31783954,11.2562328 4.53974971,11.2896493 C4.58666257,11.049797 4.32424376,10.564003 4.76891286,10.6021388 C7.73854319,7.41859701 8.61731056,5.89369701 9.26845797,4.5562791 C9.34415125,4.40076716 12.1046798,1.6339791 12.1046798,1.6339791 L9.20626756,0.319092537 C9.20626756,0.319092537 8.76360461,0.117071642 8.46576967,0.0793925373 L8.46584683,0.0793164179 Z" id="Stroke-20" stroke="#C0A690" stroke-width="0.600000024" stroke-linecap="round" stroke-linejoin="round"></path>
                <path d="M4.80116545,2.60039104 L8.2836737,4.25400896" id="Stroke-22" stroke="#C0A690" stroke-width="0.600000024" stroke-linecap="round" stroke-linejoin="round"></path>
                <path d="M11.2768376,1.35682836 C9.03412514,1.07313134 7.57998081,3.86785522 7.57998081,3.86785522 C7.57998081,3.86785522 6.12575931,2.50782985 3.88312399,5.00386119 C1.64079731,7.50019701 2.4285167,9.5778 3.0800499,10.2727701 C3.73158311,10.9677403 4.61042764,11.6252597 7.57998081,11.8795746 C10.5496111,8.69610896 11.4283013,7.17120896 12.0794488,5.83371493 C12.7310591,4.49599254 13.5191643,1.64105821 11.2768376,1.35682836 Z" id="Fill-23" fill="#FFFFFF"></path>
                <path d="M11.2768376,1.35682836 C9.03412514,1.07313134 7.57998081,3.86785522 7.57998081,3.86785522 C7.57998081,3.86785522 6.12575931,2.50782985 3.88312399,5.00386119 C1.64079731,7.50019701 2.4285167,9.5778 3.0800499,10.2727701 C3.73158311,10.9677403 4.61042764,11.6252597 7.57998081,11.8795746 C10.5496111,8.69610896 11.4283013,7.17120896 12.0794488,5.83371493 C12.7310591,4.49599254 13.5191643,1.64105821 11.2768376,1.35682836 Z" id="Stroke-24" stroke="#C0A690" stroke-width="0.600000024" fill="#FFFFFF" stroke-linecap="round" stroke-linejoin="round"></path>
            </g>
            <g id="heart" transform="translate(9.600000, 0.000000)">
                <path d="M16.9316937,0.158632836 C12.4462687,-0.408608955 9.53798004,5.18083881 9.53798004,5.18083881 C9.53798004,5.18083881 6.66765374,2.46063582 2.18222879,7.45285075 C-1.62589175,12.225994 1.39350633,18.8433582 2.61648138,19.3914179 C2.58376583,19.5168627 8.63567908,22.5124657 9.07949942,22.5792985 C9.17332514,22.099594 8.64848752,21.128006 9.53782572,21.2042776 C15.4770864,14.837194 17.2346211,11.787394 18.5369159,9.11255821 C18.6883025,8.80153433 24.2093597,3.26795821 24.2093597,3.26795821 L18.4125351,0.638185075 C18.4125351,0.638185075 17.5272092,0.234143284 16.9315393,0.158785075 L16.9316937,0.158632836 Z" id="Fill-19" stroke="#C0A690" stroke-width="0.600000024" fill="#E6DED3" stroke-linecap="round" stroke-linejoin="round"></path>
                <path d="M16.9316937,0.158632836 C12.4462687,-0.408608955 9.53798004,5.18083881 9.53798004,5.18083881 C9.53798004,5.18083881 6.66765374,2.46063582 2.18222879,7.45285075 C-1.62589175,12.225994 1.39350633,18.8433582 2.61648138,19.3914179 C2.58376583,19.5168627 8.63567908,22.5124657 9.07949942,22.5792985 C9.17332514,22.099594 8.64848752,21.128006 9.53782572,21.2042776 C15.4770864,14.837194 17.2346211,11.787394 18.5369159,9.11255821 C18.6883025,8.80153433 24.2093597,3.26795821 24.2093597,3.26795821 L18.4125351,0.638185075 C18.4125351,0.638185075 17.5272092,0.234143284 16.9315393,0.158785075 L16.9316937,0.158632836 Z" id="Stroke-20" stroke="#C0A690" stroke-width="0.618000007" stroke-linecap="round" stroke-linejoin="round"></path>
                <path d="M9.6023309,5.20078209 L16.5673474,8.50801791" id="Stroke-22" stroke="#C0A690" stroke-width="0.618000007" stroke-linecap="round" stroke-linejoin="round"></path>
                <path d="M22.5536752,2.71365672 C18.0682503,2.14626269 15.1599616,7.73571045 15.1599616,7.73571045 C15.1599616,7.73571045 12.2515186,5.0156597 7.76624798,10.0077224 C3.28159463,15.000394 4.8570334,19.1556 6.16009981,20.5455403 C7.46316622,21.9354806 9.22085528,23.2505194 15.1599616,23.7591493 C21.0992223,17.3922179 22.8566027,14.3424179 24.1588975,11.6674299 C25.4621182,8.99198507 27.0383286,3.28211642 22.5536752,2.71365672 Z" id="Fill-23" fill="#FFFFFF"></path>
                <path d="M22.5536752,2.71365672 C18.0682503,2.14626269 15.1599616,7.73571045 15.1599616,7.73571045 C15.1599616,7.73571045 12.2515186,5.0156597 7.76624798,10.0077224 C3.28159463,15.000394 4.8570334,19.1556 6.16009981,20.5455403 C7.46316622,21.9354806 9.22085528,23.2505194 15.1599616,23.7591493 C21.0992223,17.3922179 22.8566027,14.3424179 24.1588975,11.6674299 C25.4621182,8.99198507 27.0383286,3.28211642 22.5536752,2.71365672 Z" id="Stroke-24" stroke="#C0A690" stroke-width="0.600000024" fill="#FFFFFF" stroke-linecap="round" stroke-linejoin="round"></path>
            </g>
            <g id="heart-copy" transform="translate(13.200000, 2.400000)">
                <path d="M6.0023309,2.80078209 L12.9673474,6.10801791" id="Stroke-22" stroke="#C0A690" stroke-width="0.618000007" stroke-linecap="round" stroke-linejoin="round"></path>
                <path d="M18.9536752,0.313656716 C14.4682503,-0.253737313 11.5599616,5.33571045 11.5599616,5.33571045 C11.5599616,5.33571045 8.65151862,2.6156597 4.16624798,7.60772239 C-0.318405374,12.600394 1.2570334,16.7556 2.56009981,18.1455403 C3.86316622,19.5354806 5.62085528,20.8505194 11.5599616,21.3591493 C17.4992223,14.9922179 19.2566027,11.9424179 20.5588975,9.26742985 C21.8621182,6.59198507 23.4383286,0.882116418 18.9536752,0.313656716 Z" id="Fill-23" fill="#FFFFFF"></path>
                <path d="M18.9536752,0.313656716 C14.4682503,-0.253737313 11.5599616,5.33571045 11.5599616,5.33571045 C11.5599616,5.33571045 8.65151862,2.6156597 4.16624798,7.60772239 C-0.318405374,12.600394 1.2570334,16.7556 2.56009981,18.1455403 C3.86316622,19.5354806 5.62085528,20.8505194 11.5599616,21.3591493 C17.4992223,14.9922179 19.2566027,11.9424179 20.5588975,9.26742985 C21.8621182,6.59198507 23.4383286,0.882116418 18.9536752,0.313656716 Z" id="Stroke-24" stroke="#C0A690" stroke-width="0.600000024" fill="#FFFFFF" stroke-linecap="round" stroke-linejoin="round"></path>
            </g>
        </g>
    </g>
</svg>