<svg xmlns="http://www.w3.org/2000/svg" xmlns:xlink="http://www.w3.org/1999/xlink" width="166" height="32" viewBox="0 0 166 32"><defs><path id="6uqya" d="M68.7 79.03c-.88 0-1.68-.17-2.4-.52a5.9 5.9 0 0 1-3.04-3.29 6.09 6.09 0 0 1 1.25-6.4 6 6 0 0 1 1.87-1.32c.72-.33 1.5-.49 2.36-.49a5.48 5.48 0 0 1 4.24 1.89 6.19 6.19 0 0 1-.06 8.3 6 6 0 0 1-1.87 1.33c-.72.33-1.5.5-2.36.5m-3.07-6.01c0 .45.06.9.2 1.32.13.43.33.81.59 1.14a2.9 2.9 0 0 0 2.3 1.1 2.8 2.8 0 0 0 2.33-1.14c.25-.34.44-.72.57-1.15a4.55 4.55 0 0 0 0-2.63c-.14-.43-.34-.8-.6-1.14a2.88 2.88 0 0 0-2.3-1.08 2.82 2.82 0 0 0-2.32 1.12c-.26.34-.45.72-.58 1.15-.13.42-.2.86-.2 1.3"/><path id="6uqyb" d="M78.16 78.93V67.08h5.32c.55 0 1.07.12 1.54.35a4.1 4.1 0 0 1 2.03 2.2 3.84 3.84 0 0 1 .15 2.52 4.16 4.16 0 0 1-.98 1.77c-.24.24-.51.44-.81.6l2.6 4.41h-3.08l-2.26-3.82h-1.78v3.82zm2.73-6.2h2.49c.32 0 .6-.16.83-.47.23-.3.35-.7.35-1.17 0-.5-.13-.88-.4-1.17-.26-.3-.55-.44-.86-.44h-2.41z"/><path id="6uqyc" d="M91.29 78.93h2.73V67.08h-2.73z"/><path id="6uqyd" d="M103.44 79.03c-.87 0-1.67-.17-2.4-.52a5.9 5.9 0 0 1-3.03-3.29 6.09 6.09 0 0 1 1.25-6.4 6 6 0 0 1 1.87-1.32c.72-.33 1.5-.49 2.36-.49.88 0 1.68.17 2.4.52a5.83 5.83 0 0 1 3.02 3.3 6.12 6.12 0 0 1-.02 4.46 6.09 6.09 0 0 1-3.09 3.24c-.72.33-1.5.5-2.36.5m-3.07-6.01c0 .45.06.9.2 1.32.13.43.32.81.58 1.14a2.9 2.9 0 0 0 2.3 1.1 2.8 2.8 0 0 0 2.33-1.14c.25-.34.44-.72.57-1.15a4.6 4.6 0 0 0 0-2.63c-.14-.43-.34-.8-.6-1.14a2.87 2.87 0 0 0-2.3-1.08 2.81 2.81 0 0 0-2.31 1.12c-.26.34-.46.72-.58 1.15-.13.42-.2.86-.2 1.3"/><path id="6uqye" d="M115.63 72.16v6.77h-2.73V67.08h2.13l5.5 6.96v-6.96h2.73v11.85h-2.2z"/><path id="6uqyf" d="M134.53 67.08l2.78 8.42 2.74-8.42h2.88l-4.47 11.85h-2.3l-4.52-11.85z"/><path id="6uqyg" d="M148.22 67.08h2.46l4.3 11.85h-2.8l-.9-2.65h-3.68l-.9 2.65h-2.79zm2.62 7.31l-1.39-4.19-1.42 4.2z"/><path id="6uqyh" d="M162.7 76.6c.46 0 .86-.1 1.18-.3.32-.19.58-.45.78-.77.2-.32.34-.7.42-1.11.09-.42.13-.85.13-1.28v-6.06h2.72v6.06c0 .82-.1 1.6-.3 2.3-.2.72-.52 1.34-.95 1.88-.43.53-.97.95-1.63 1.26-.66.3-1.44.46-2.35.46-.95 0-1.75-.17-2.41-.49a4.46 4.46 0 0 1-1.62-1.3 5.35 5.35 0 0 1-.92-1.87c-.2-.71-.29-1.46-.29-2.24v-6.06h2.73v6.06c0 .46.04.9.13 1.3.09.42.23.78.43 1.1.2.33.46.58.77.77.32.2.71.29 1.18.29"/><path id="6uqyi" d="M172.04 78.93V67.08h2.73v9.45h5.72v2.4z"/><path id="6uqyj" d="M190.8 69.48h-3.6v9.45h-2.72v-9.45h-3.61v-2.4h9.93z"/><path id="6uqyk" d="M56.07 57.25c.17 0 .31.14.31.31V88.2c0 .17-.14.31-.31.31h-30.5a.31.31 0 0 1-.32-.31V57.56c0-.17.14-.31.31-.31zM54 59.65h-7.75c-.66.05-1.15.16-1.48.31-.42.2-.63.56-.63 1.08 0 .43.15 1.03.45 1.82l7 18.62L54 75.2zm-26.23.29h-.14v26l.4.02c1.57 0 2.96-.55 4.16-1.66a10.7 10.7 0 0 0 2.77-4.63c.65-1.98.98-4.24.98-6.8 0-2.57-.37-4.84-1.09-6.8a10.7 10.7 0 0 0-2.94-4.53 6.2 6.2 0 0 0-4.14-1.6zm6.2 24.95c-.83.54-1.71.94-2.64 1.23h18.43l-9.3-24.04c-.56-1.44-1.34-2.26-2.32-2.44H31.1c1.07.27 2.07.67 2.98 1.22a10.59 10.59 0 0 1 4.1 4.64 16.6 16.6 0 0 1 1.46 7.23c0 2.73-.5 5.15-1.5 7.26-1 2.1-2.4 3.74-4.17 4.9zM54 86.12v-8.7l-3.36 8.7z"/></defs><g><g transform="translate(-25 -57)"><g><use fill="#d8a734" xlink:href="#6uqya"/></g><g><use fill="#d8a734" xlink:href="#6uqyb"/></g><g><use fill="#d8a734" xlink:href="#6uqyc"/></g><g><use fill="#d8a734" xlink:href="#6uqyd"/></g><g><use fill="#d8a734" xlink:href="#6uqye"/></g><g><use fill="#d8a734" xlink:href="#6uqyf"/></g><g><use fill="#d8a734" xlink:href="#6uqyg"/></g><g><use fill="#d8a734" xlink:href="#6uqyh"/></g><g><use fill="#d8a734" xlink:href="#6uqyi"/></g><g><use fill="#d8a734" xlink:href="#6uqyj"/></g><g><use fill="#d8a734" xlink:href="#6uqyk"/></g></g></g></svg>