<svg xmlns="http://www.w3.org/2000/svg" xmlns:xlink="http://www.w3.org/1999/xlink" width="14" height="13" viewBox="0 0 14 13"><defs><path id="c6yya" d="M105 9735.18l-5.8 5.57c-.1.1-.16.22-.17.34l-.3-1.1a.55.55 0 0 0-.33-.38l-2.33-.89zm-5.74 6.44l1.18.8-.9.65-.42-1.59c.04.06.09.1.14.14zm2.45.33l-1.26-.86 6.1-5.87-1.7 8.87-3.12-2.13h-.02zm3.74 3.57c.17-.08.3-.23.33-.41l2.17-11.38a.54.54 0 0 0 .01-.15.55.55 0 0 0-.77-.47l-12.84 5.11a.55.55 0 0 0 0 1.03l3.38 1.3.95 3.58a.55.55 0 0 0 .86.3l1.88-1.35 3.5 2.38a.55.55 0 0 0 .53.06z"/></defs><g><g transform="translate(-94 -9733)"><use fill="#fff" xlink:href="#c6yya"/></g></g></svg>