
<svg width="23px" height="40px" viewBox="0 0 23 40" version="1.1" xmlns="http://www.w3.org/2000/svg" xmlns:xlink="http://www.w3.org/1999/xlink">
    <!-- Generator: Sketch 50.2 (55047) - http://www.bohemiancoding.com/sketch -->
    <title>icon/tokenization</title>
    <desc>Created with Sketch.</desc>
    <defs></defs>
    <g id="icon/tokenization" stroke="none" stroke-width="1" fill="none" fill-rule="evenodd">
        <g id="Group">
            <polygon id="Stroke-1" stroke="#C0A690" stroke-width="0.5" stroke-linecap="square" stroke-linejoin="round" points="0.0115285124 32.4491138 0.0115285124 39.1379952 1.65248347 39.9741114 1.65248347 33.28523"></polygon>
            <polygon id="Stroke-2" stroke="#C0A690" stroke-width="0.5" fill="#FFFFFF" stroke-linecap="round" stroke-linejoin="round" points="1.65248347 33.28523 1.65248347 39.9741114 6.57533884 37.4657821 6.57533884 30.7769007"></polygon>
            <polygon id="Stroke-3" stroke="#C0A690" stroke-width="0.5" fill="#FFFFFF" stroke-linecap="round" stroke-linejoin="round" points="0.0115285124 32.4491138 4.93439339 29.9408232 6.57533884 30.7769007 1.65248347 33.28523"></polygon>
            <polygon id="Fill-4" stroke="#C0A690" stroke-width="0.5" fill="#E6DED3" stroke-linecap="round" stroke-linejoin="round" points="0.0115285124 32.4491138 0.0115285124 39.1379952 1.65248347 39.9741114 1.65248347 33.28523"></polygon>
            <polygon id="Stroke-5" stroke="#C0A690" stroke-width="0.5" stroke-linecap="square" stroke-linejoin="round" points="8.2162938 28.2685714 8.2162938 34.9574431 9.85721074 35.7935593 9.85721074 29.1046973"></polygon>
            <polygon id="Stroke-6" stroke="#C0A690" stroke-width="0.5" fill="#FFFFFF" stroke-linecap="round" stroke-linejoin="round" points="9.85721074 29.1046973 9.85721074 35.7935593 14.7800661 33.28523 14.7800661 26.5963196"></polygon>
            <polygon id="Stroke-7" stroke="#C0A690" stroke-width="0.5" fill="#FFFFFF" stroke-linecap="round" stroke-linejoin="round" points="8.2162938 28.2685714 13.1391777 25.7601937 14.7800661 26.5963196 9.85721074 29.1046973"></polygon>
            <polygon id="Fill-8" stroke="#C0A690" stroke-width="0.5" fill="#E6DED3" stroke-linecap="round" stroke-linejoin="round" points="8.2162938 28.2685714 8.2162938 34.9574431 9.85721074 35.7935593 9.85721074 29.1046973"></polygon>
            <polygon id="Stroke-9" stroke="#C0A690" stroke-width="0.5" stroke-linecap="square" stroke-linejoin="round" points="16.4210496 24.0880387 16.4210496 30.7769007 18.0620331 31.6130073 18.0620331 24.9241646"></polygon>
            <polygon id="Stroke-10" stroke="#C0A690" stroke-width="0.5" fill="#FFFFFF" stroke-linecap="round" stroke-linejoin="round" points="18.0620331 24.9241646 18.0620331 31.6130073 22.9848884 29.1046973 22.9848884 22.4157869"></polygon>
            <polygon id="Stroke-11" stroke="#C0A690" stroke-width="0.5" fill="#FFFFFF" stroke-linecap="round" stroke-linejoin="round" points="16.4210496 24.0880387 21.343905 21.579661 22.9848884 22.4157869 18.0620331 24.9241646"></polygon>
            <polygon id="Fill-12" stroke="#C0A690" stroke-width="0.5" fill="#E6DED3" stroke-linecap="round" stroke-linejoin="round" points="16.4210496 24.0880387 16.4210496 30.7769007 18.0620331 31.6130073 18.0620331 24.9241646"></polygon>
            <polygon id="Stroke-13" stroke="#C0A690" stroke-width="0.5" stroke-linecap="square" stroke-linejoin="round" points="0.0115285124 10.8812591 0.0115285124 17.5700726 1.65248347 18.4061985 1.65248347 11.7172881"></polygon>
            <polygon id="Stroke-14" stroke="#C0A690" stroke-width="0.5" fill="#FFFFFF" stroke-linecap="round" stroke-linejoin="round" points="1.65248347 11.7172881 1.65248347 18.4061985 6.57533884 15.8979177 6.57533884 9.20900726"></polygon>
            <polygon id="Stroke-15" stroke="#C0A690" stroke-width="0.5" fill="#FFFFFF" stroke-linecap="round" stroke-linejoin="round" points="0.0115285124 10.8812591 4.93439339 8.37288136 6.57533884 9.20900726 1.65248347 11.7172881"></polygon>
            <polygon id="Fill-16" stroke="#C0A690" stroke-width="0.5" fill="#E6DED3" stroke-linecap="round" stroke-linejoin="round" points="0.0115285124 10.8812591 0.0115285124 17.5700726 1.65248347 18.4061985 1.65248347 11.7172881"></polygon>
            <polygon id="Stroke-17" stroke="#C0A690" stroke-width="0.5" stroke-linecap="square" stroke-linejoin="round" points="8.2162938 6.70062954 8.2162938 13.38954 9.85721074 14.2256659 9.85721074 7.53675545"></polygon>
            <polygon id="Stroke-18" stroke="#C0A690" stroke-width="0.5" fill="#FFFFFF" stroke-linecap="round" stroke-linejoin="round" points="9.85721074 7.53675545 9.85721074 14.2256659 14.7800661 11.7172881 14.7800661 5.02847458"></polygon>
            <polygon id="Stroke-19" stroke="#C0A690" stroke-width="0.5" fill="#FFFFFF" stroke-linecap="round" stroke-linejoin="round" points="8.2162938 6.70062954 13.1391777 4.19234867 14.7800661 5.02847458 9.85721074 7.53675545"></polygon>
            <polygon id="Fill-20" stroke="#C0A690" stroke-width="0.5" fill="#E6DED3" stroke-linecap="round" stroke-linejoin="round" points="8.2162938 6.70062954 8.2162938 13.38954 9.85721074 14.2256659 9.85721074 7.53675545"></polygon>
            <polygon id="Stroke-21" stroke="#C0A690" stroke-width="0.5" stroke-linecap="square" stroke-linejoin="round" points="16.4210496 2.52009685 16.4210496 9.20900726 18.0620331 10.0451332 18.0620331 3.35622276"></polygon>
            <polygon id="Stroke-22" stroke="#C0A690" stroke-width="0.5" fill="#FFFFFF" stroke-linecap="round" stroke-linejoin="round" points="18.0620331 3.35622276 18.0620331 10.0451332 22.9848884 7.53675545 22.9848884 0.847845036"></polygon>
            <polygon id="Stroke-23" stroke="#C0A690" stroke-width="0.5" fill="#FFFFFF" stroke-linecap="round" stroke-linejoin="round" points="16.4210496 2.52009685 21.343905 0.0118159806 22.9848884 0.847845036 18.0620331 3.35622276"></polygon>
            <polygon id="Fill-24" stroke="#C0A690" stroke-width="0.5" fill="#E6DED3" stroke-linecap="round" stroke-linejoin="round" points="16.4210496 2.52009685 16.4210496 9.20900726 18.0620331 10.0451332 18.0620331 3.35622276"></polygon>
            <polygon id="Stroke-25" stroke="#C0A690" stroke-width="0.5" stroke-linecap="square" stroke-linejoin="round" points="0.0115285124 21.579661 0.0115285124 28.2685714 1.65248347 29.1046973 1.65248347 22.4157869"></polygon>
            <polygon id="Stroke-26" stroke="#C0A690" stroke-width="0.5" fill="#FFFFFF" stroke-linecap="round" stroke-linejoin="round" points="1.65248347 22.4157869 1.65248347 29.1046973 6.57533884 26.5963196 6.57533884 19.9075061"></polygon>
            <polygon id="Stroke-27" stroke="#C0A690" stroke-width="0.5" fill="#FFFFFF" stroke-linecap="round" stroke-linejoin="round" points="0.0115285124 21.579661 4.93439339 19.0713801 6.57533884 19.9075061 1.65248347 22.4157869"></polygon>
            <polygon id="Fill-28" stroke="#C0A690" stroke-width="0.5" fill="#E6DED3" stroke-linecap="round" stroke-linejoin="round" points="0.0115285124 21.579661 0.0115285124 28.2685714 1.65248347 29.1046973 1.65248347 22.4157869"></polygon>
            <polygon id="Stroke-29" stroke="#C0A690" stroke-width="0.5" stroke-linecap="square" stroke-linejoin="round" points="8.2162938 17.3991283 8.2162938 24.0880387 9.85721074 24.9241646 9.85721074 18.2352542"></polygon>
            <polygon id="Stroke-30" stroke="#C0A690" stroke-width="0.5" fill="#FFFFFF" stroke-linecap="round" stroke-linejoin="round" points="9.85721074 18.2352542 9.85721074 24.9241646 14.7800661 22.4157869 14.7800661 15.7268765"></polygon>
            <polygon id="Stroke-31" stroke="#C0A690" stroke-width="0.5" fill="#FFFFFF" stroke-linecap="round" stroke-linejoin="round" points="8.2162938 17.3991283 13.1391777 14.8908475 14.7800661 15.7268765 9.85721074 18.2352542"></polygon>
            <polygon id="Fill-32" stroke="#C0A690" stroke-width="0.5" fill="#E6DED3" stroke-linecap="round" stroke-linejoin="round" points="8.2162938 17.3991283 8.2162938 24.0880387 9.85721074 24.9241646 9.85721074 18.2352542"></polygon>
            <polygon id="Stroke-33" stroke="#C0A690" stroke-width="0.5" stroke-linecap="square" stroke-linejoin="round" points="16.4210496 13.2185956 16.4210496 19.9075061 18.0620331 20.7435351 18.0620331 14.0547215"></polygon>
            <polygon id="Stroke-34" stroke="#C0A690" stroke-width="0.5" fill="#FFFFFF" stroke-linecap="round" stroke-linejoin="round" points="18.0620331 14.0547215 18.0620331 20.7435351 22.9848884 18.2352542 22.9848884 11.5463438"></polygon>
            <polygon id="Stroke-35" stroke="#C0A690" stroke-width="0.5" fill="#FFFFFF" stroke-linecap="round" stroke-linejoin="round" points="16.4210496 13.2185956 21.343905 10.7102179 22.9848884 11.5463438 18.0620331 14.0547215"></polygon>
            <polygon id="Fill-36" stroke="#C0A690" stroke-width="0.5" fill="#E6DED3" stroke-linecap="round" stroke-linejoin="round" points="16.4210496 13.2185956 16.4210496 19.9075061 18.0620331 20.7435351 18.0620331 14.0547215"></polygon>
            <path d="M3.29343843,20.7233898 L3.29343843,17.5700726" id="Stroke-37" stroke="#C0A690" stroke-width="0.5" stroke-linecap="round" stroke-linejoin="round"></path>
            <path d="M11.2912893,16.6337046 L11.2912893,13.4803874" id="Stroke-38" stroke="#C0A690" stroke-width="0.5" stroke-linecap="round" stroke-linejoin="round"></path>
            <path d="M11.4981942,27.3369492 L11.4981942,24.1835351" id="Stroke-39" stroke="#C0A690" stroke-width="0.5" stroke-linecap="round" stroke-linejoin="round"></path>
            <path d="M19.5351736,23.2418402 L19.5351736,20.088523" id="Stroke-40" stroke="#C0A690" stroke-width="0.5" stroke-linecap="round" stroke-linejoin="round"></path>
            <path d="M9.00535537,32.0470702 L6.57533884,33.4496852" id="Stroke-41" stroke="#C0A690" stroke-width="0.5" stroke-linecap="round" stroke-linejoin="round"></path>
            <path d="M9.00535537,21.1776271 L6.57533884,22.5802421" id="Stroke-42" stroke="#C0A690" stroke-width="0.5" stroke-linecap="round" stroke-linejoin="round"></path>
            <path d="M17.2181612,27.7801453 L14.7881446,29.1827603" id="Stroke-43" stroke="#C0A690" stroke-width="0.5" stroke-linecap="round" stroke-linejoin="round"></path>
            <path d="M9.00535537,10.4298305 L6.57533884,11.8324455" id="Stroke-44" stroke="#C0A690" stroke-width="0.5" stroke-linecap="round" stroke-linejoin="round"></path>
            <path d="M17.2181612,6.16290557 L14.7881446,7.56552058" id="Stroke-45" stroke="#C0A690" stroke-width="0.5" stroke-linecap="round" stroke-linejoin="round"></path>
            <polygon id="Fill-46" fill="#C0A690" points="4.21808595 12.5791525 4.93439339 13.3674643 4.16074752 14.5712591 3.29343843 13.8545453"></polygon>
            <polygon id="Fill-46" fill="#C0A690" points="12.4246475 30 13.140955 30.7883118 12.3673091 31.9921065 11.5 31.2753928"></polygon>
            <polygon id="Fill-46" fill="#C0A690" points="20.9246475 15 21.640955 15.7883118 20.8673091 16.9921065 20 16.2753928"></polygon>
        </g>
    </g>
</svg>