
<svg width="40px" height="56px" viewBox="0 0 40 56" version="1.1" xmlns="http://www.w3.org/2000/svg" xmlns:xlink="http://www.w3.org/1999/xlink">
    <!-- Generator: Sketch 50.2 (55047) - http://www.bohemiancoding.com/sketch -->
    <title>icon/trading</title>
    <desc>Created with Sketch.</desc>
    <defs></defs>
    <g id="icon/trading" stroke="none" stroke-width="1" fill="none" fill-rule="evenodd">
        <g id="Group-8">
            <g id="Page-1-Copy-2" transform="translate(20.000000, 14.000000)">
                <polygon id="Fill-10" fill="#E6DED3" points="4.11289651 29.0651899 4.02753524 27.5923854 16.3313803 21.459689 16.3313803 4.48551775 17.8708267 3.67396845 17.8708267 22.0724935"></polygon>
                <polyline id="Fill-2" fill="#FFFFFF" points="19.2117079 1.0597138 19.2133968 1.84001239 19.2599619 23.2233431 2.68665397 31.543768 0.455245714 30.4719561"></polyline>
                <polyline id="Stroke-3" stroke="#C0A690" stroke-width="0.5" stroke-linecap="round" stroke-linejoin="round" points="19.2117079 1.0597138 19.2133968 1.84001239 19.2599619 23.2233431 2.68665397 31.543768 0.455245714 30.4719561"></polyline>
                <polygon id="Stroke-5" stroke="#C0A690" stroke-width="0.5" fill="#E6DED3" stroke-linecap="round" stroke-linejoin="round" points="0.455245714 30.4477307 0.455245714 8.25987606 2.68665397 9.35592789 2.68665397 31.543768"></polygon>
                <polygon id="Fill-6" fill="#FFFFFF" points="0.455245714 8.25987606 17.1491886 0.0242253521 19.2117079 1.0597138 2.68665397 9.35592789"></polygon>
                <polygon id="Stroke-7" stroke="#C0A690" stroke-width="0.5" fill="#FFFFFF" stroke-linecap="round" stroke-linejoin="round" points="0.455245714 8.25987606 17.1491886 0.0242253521 19.2117079 1.0597138 2.68665397 9.35592789"></polygon>
                <polygon id="Fill-8" stroke="#C0A690" stroke-width="0.5" stroke-linecap="round" stroke-linejoin="round" points="4.10792635 10.5431639 17.8306311 3.65381296 17.8708267 22.0724935 4.02753524 29.0223594"></polygon>
                <polygon id="Stroke-9" stroke="#C0A690" stroke-width="0.5" fill="#FFFFFF" stroke-linecap="round" stroke-linejoin="round" points="4.10792635 10.5431639 17.8306311 3.65381296 17.8708267 22.0724935 4.02753524 29.0223594"></polygon>
                <polygon id="Stroke-12" stroke="#C0A690" stroke-width="0.5" fill="#FFFFFF" stroke-linecap="round" stroke-linejoin="round" points="4.11014603 10.569182 16.2797003 4.45959662 16.31536 21.4234479 4.03887492 27.5867166"></polygon>
                <polygon id="Fill-13" stroke="#C0A690" stroke-width="0.5" fill="#E6DED3" stroke-linecap="round" stroke-linejoin="round" points="17.8708267 22.0724935 16.3313803 21.459689 4.11289651 27.6238783 4.11289651 29.0651899"></polygon>
                <g id="Group-6" transform="translate(4.000000, 10.000000)" fill="#C0A690">
                    <path d="M0.262695312,10.6633301 C0.262695312,9.85797284 6.0489502,7.06140137 7.47338867,8.97631836 C8.42301432,10.2529297 9.46602376,11.2716064 10.602417,12.0323486 L0.262695312,17.194458 L0.262695312,10.6633301 Z" id="Fill-24"></path>
                    <path d="M3.01326316,7.33013559 C3.01326316,7.33013559 5.9651214,2.05351308 12.0612793,0.719970703 L12.0612793,11.1397705 C12.0612793,11.1397705 10.8186035,10.8098145 8.94030762,8.35083008 C7.06201172,5.8918457 3.31689474,7.81914407 3.01326316,7.33013559 Z" id="Fill-25"></path>
                    <path d="M3.22115789,1 C3.89521053,1 4.44231579,1.74872881 4.44231579,2.67087288 C4.44231579,3.59317797 3.89521053,4.34190678 3.22115789,4.34190678 C2.54726316,4.34190678 2,3.59317797 2,2.67087288 C2,1.74872881 2.54726316,1 3.22115789,1 Z" id="Fill-26"></path>
                </g>
            </g>
            <g id="icon/artwork" transform="translate(0.000000, 24.000000)">
                <g id="Page-1">
                    <polygon id="Combined-Shape" fill="#FFFFFF" points="17.175523 0 19.0747383 1.17430724 19.2599619 23.2233431 2.68665397 31.543768 0.455245714 30.4719561 0.455245714 8.31907237"></polygon>
                    <polygon id="Combined-Shape" stroke="#C0A690" stroke-width="0.5" fill="#FFFFFF" stroke-linecap="round" stroke-linejoin="round" points="16.6451913 0.272863145 17.1731605 0.000257329318 19.2117079 1.0597138 19.2133968 1.84001239 19.2599619 23.2233431 2.68665397 31.543768 0.455245714 30.4719561 0.455574595 30.4478922 0.455245714 30.4477307 0.455245714 8.25987606"></polygon>
                    <polygon id="Stroke-5" stroke="#C0A690" stroke-width="0.5" fill="#E6DED3" stroke-linecap="round" stroke-linejoin="round" points="0.455245714 30.4477307 0.455245714 8.25987606 2.68665397 9.35592789 2.68665397 31.543768"></polygon>
                    <polygon id="Stroke-7" stroke="#C0A690" stroke-width="0.5" fill="#FFFFFF" stroke-linecap="round" stroke-linejoin="round" points="0.455245714 8.25987606 17.1491886 0.0242253521 19.2117079 1.0597138 2.68665397 9.35592789"></polygon>
                    <polygon id="Fill-8" fill="#FFFFFF" points="4.10792635 10.5431639 17.8306311 3.65381296 17.8708267 22.0724935 4.02753524 29.0223594"></polygon>
                    <polygon id="Fill-13" fill="#E6DED3" points="17.8708267 22.0724935 16.3313803 21.459689 4.11289651 27.6238783 4.11289651 29.0651899"></polygon>
                    <polygon id="Fill-10" fill="#E6DED3" points="4.11289651 29.0651899 4.02753524 27.5923854 16.3313803 21.459689 16.3313803 4.48551775 17.8708267 3.67396845 17.8708267 22.0724935"></polygon>
                    <polygon id="Stroke-9" stroke="#C0A690" stroke-width="0.5" stroke-linecap="round" stroke-linejoin="round" points="4.10792635 10.5431639 17.8306311 3.65381296 17.8708267 22.0724935 4.02753524 29.0223594"></polygon>
                    <path d="M10.5096356,9.76620845 C11.1233778,9.60627268 12.07456,9.57419831 12.4175975,10.3220834 C12.6168381,10.7561532 12.603713,11.934862 12.5585956,12.8473825 C12.3959797,13.8727448 12.0209981,14.7489758 11.4373181,15.4591177 C10.6553143,16.4103989 9.676,16.8444687 9.20229079,17.0096372 C8.55655619,17.016711 8.17592889,16.2442614 8.01051429,15.5402727 C7.81691937,14.7183065 7.93436952,14.1799223 7.93436952,14.1799223 L7.93436952,13.8364068 C7.76239238,13.463191 7.91559873,12.0263854 8.14398476,11.4511786 C8.37237079,10.8769408 9.09984762,10.5041611 9.3075327,10.2347268 C9.59797333,9.85865239 9.98892698,8.66584451 10.1036267,8.30440225 C7.7201219,9.80206197 7.12510222,12.1165037 7.0086654,12.7101217 C6.72483556,13.1244237 6.49080381,13.7307358 6.72859937,14.1398535 C6.64304508,14.2922794 6.55753905,14.4861792 6.52366476,14.6919008 C6.49548444,14.8636586 6.49644952,15.0953499 6.62987175,15.2982614 C6.39304127,15.8776834 5.88738794,17.4187549 6.44095746,18.9708248 C6.97483937,20.4684845 6.74737016,21.0544958 6.6007746,21.3432135 C6.24171683,21.6659437 5.05655111,22.7988665 4.56025905,24.1446332 C4.41834413,24.2790839 4.26137397,24.4598051 4.11289651,24.6787538 L4.11477841,27.5485859 L16.3304635,21.4158411 L16.3313803,16.4683459 C15.9751695,16.1225048 15.5607162,15.7634366 15.1997765,15.5708935 C15.1010971,15.0485465 14.609534,12.4235842 14.5926451,11.4290366 C14.5832356,10.868462 14.5616178,9.55433352 14.080381,8.59651155 C13.5202489,7.48006197 12.493887,7.20360225 11.0990095,7.78496225 L10.3433524,8.16433127 C9.45330794,10.076729 10.3114083,9.8176631 10.5097321,9.7662569 L10.5096356,9.76620845 Z M12.7418641,17.7551966 C12.7418641,17.9099482 12.8010717,18.0189623 12.8978692,18.0741476 C12.8142451,18.19072 12.7606349,18.3232811 12.7606349,18.4440687 C12.7606349,18.498818 12.7719263,18.5450885 12.7916622,18.5832676 C12.6666844,18.7630682 12.5886578,18.9683054 12.5886578,19.1532901 C12.5886578,19.2655989 12.6178032,19.3557172 12.6676013,19.4231606 C12.5378946,19.5939977 12.4542705,19.7973454 12.4542705,19.9776304 C12.4542705,20.0700744 12.4768051,20.145609 12.5162768,20.2031685 C11.9598603,20.7401476 11.3292292,21.8438062 11.3292292,21.8438062 C10.0707175,22.5709059 7.18908698,23.5580406 7.07429079,22.657778 C6.95963937,21.757467 9.68801524,18.3380586 9.68801524,18.3380586 C9.68801524,18.2200811 9.62224508,17.7180349 9.57244698,17.3514085 C9.64386286,17.3193341 9.71812571,17.2839166 9.79610413,17.2447685 C10.362847,16.9602175 11.0809143,16.4846254 11.7134756,15.7168755 C12.0161244,15.349813 12.2698921,14.948738 12.4775771,14.5169938 C12.5198959,15.729182 12.7999619,17.0814896 12.7999619,17.0814896 L12.9841956,17.1569758 C12.8375517,17.3400225 12.7416711,17.5599403 12.7416711,17.7552935 L12.7418641,17.7551966 Z" id="Fill-11" fill="#C0A690"></path>
                    <polygon id="Stroke-12" stroke="#C0A690" stroke-width="0.5" stroke-linecap="round" stroke-linejoin="round" points="4.11014603 10.569182 16.2797003 4.45959662 16.31536 21.4234479 4.03887492 27.5867166"></polygon>
                </g>
            </g>
            <g id="Group" transform="translate(11.000000, 0.000000)">
                <polygon id="Path-14" fill="#E8E4DB" opacity="0.200000003" points="0.0419311523 13.4836426 1.26818848 14.0719604 1.78857422 10.6332397 2.50476074 8.32519531 4.6081543 5.17700195 6.41003418 3.64117432 7.159729 3.1104126 6.54504395 2.56689453 7.55767822 0.82598877 6.41003418 0.0903930664 5.76416016 0.580322266 5.15130615 1.71520996 5.76416016 2.28082275 5.01519775 2.90283203 3.51861572 4.19140625 2.10339355 5.86169434 1.14331055 7.578125 0.545349121 9.31384277 0.200744629 10.7370605 0.0419311523 12.1049194"></polygon>
                <path d="M7.54187012,0.925170898 C7.54187012,0.925170898 7.20713298,1.46775309 6.53765869,2.55291748 L7.0397644,3.01776123 L6.69677734,3.49731445 L5.23284912,4.46942139 L3.67315674,6.29754639 L2.63946533,8.05426025 L2.12310791,9.45239258 L1.70794678,10.9162598 L1.2890625,12.8016357 L1.37255859,13.911499 L3.02130127,13.1762695 L3.02130127,12.0133667 L3.42950439,10.0600586 L4.13726807,8.32574463 L4.85003662,7.32513428 L5.62261963,6.29754639 L6.69677734,5.30133057 L7.0397644,5.30133057 L6.69677734,6.29754639 L7.35223389,6.65100098 L7.79449463,6.65100098 L9.27844238,4.25360107 L10.2154541,2.30670166 C8.43306478,1.38568115 7.54187012,0.925170898 7.54187012,0.925170898 Z" id="Path-13" fill="#E6DED3"></path>
                <polygon id="Path-12" fill="#E6DED3" points="9.84191895 5.7442627 9.39599609 9.34533691 7.28015137 12.3043213 6.78967285 12.8964844 7.09191895 13.4381104 7.09191895 13.951416 7.09191895 14.1999512 8.3157959 13.4381104 9.84191895 11.9176025 10.7932129 9.97210693 11.1787109 8.52099609 11.1787109 6.89013672 10.9938965 6.1829834"></polygon>
                <polygon id="Path-8" fill="#E8E4DB" opacity="0.300000012" points="6.18121338 13.1005249 3.63208008 17.309082 6.18121338 18.8786011 6.93310547 18.0391235 7.33001709 17.1879272 6.6038208 16.7474365 8.27880859 15.5280151 10.692688 13.211731 12.0039673 10.9482422 12.8444824 8.19213867 13.0230103 6.30218506 12.8444824 4.83105469 11.0582275 6.07977295 11.2280273 7.77368164 11.2280273 8.91357422 10.692688 10.1408081 9.98156738 11.7158203 8.88439941 12.9020996 7.90435791 13.7404175 7.20178223 14.1759644 6.93310547 14.3087769 7.20178223 13.5870361 6.6038208 13.1005249"></polygon>
                <polygon id="Stroke-1" stroke="#C0A690" stroke-width="0.5" stroke-linecap="round" stroke-linejoin="round" points="9.74392391 5.58641707 11.5652428 4.05376585 12.8594493 4.69045122 11.0381304 6.2230561"></polygon>
                <path d="M5.86130435,2.40312927 C5.86130435,2.40312927 -0.306719928,5.50151951 0.0374362319,13.5446366" id="Stroke-2" stroke="#C0A690" stroke-width="0.5" stroke-linecap="round" stroke-linejoin="round"></path>
                <path d="M0.0374362319,13.5446366 L1.33163333,14.1812756 L3.09274239,13.1376659 C3.09274239,13.1376659 2.4985058,9.4684878 6.03784058,5.93207805" id="Stroke-3" stroke="#C0A690" stroke-width="0.5" stroke-linecap="round" stroke-linejoin="round"></path>
                <polyline id="Stroke-4" stroke="#C0A690" stroke-width="0.5" stroke-linecap="round" stroke-linejoin="round" points="6.03784058 5.93207805 7.63067029 6.8502878 10.2793732 2.34163415 6.20019928 0.0231707317 5.12901812 1.80277561 6.03784058 2.31628537 5.86130435 2.40312927"></polyline>
                <path d="M1.33163333,14.1812756 C1.33163333,14.1812756 0.997071739,6.57205366 7.26860145,3.09542439" id="Stroke-5" stroke="#C0A690" stroke-width="0.5" stroke-linecap="round" stroke-linejoin="round"></path>
                <polyline id="Stroke-6" stroke="#C0A690" stroke-width="0.5" stroke-linecap="round" stroke-linejoin="round" points="7.5626558 0.929517073 6.50843116 2.58353659 7.26860145 3.09542439"></polyline>
                <path d="M6.03784058,5.93207805 C6.03784058,5.93207805 6.50211957,5.37704634 7.26860145,5.0053878" id="Stroke-7" stroke="#C0A690" stroke-width="0.5" stroke-linecap="round" stroke-linejoin="round"></path>
                <path d="M6.65322101,6.23478049 C6.65322101,6.23478049 7.1175942,5.04167317 7.26860145,5.0053878" id="Stroke-8" stroke="#C0A690" stroke-width="0.5" stroke-linecap="round" stroke-linejoin="round"></path>
                <path d="M12.8594493,4.69045122 C12.8594493,4.69045122 14.4598152,12.2917951 6.50843116,16.7279151" id="Stroke-9" stroke="#C0A690" stroke-width="0.5" stroke-linecap="round" stroke-linejoin="round"></path>
                <path d="M6.50843116,16.7279151 L7.43369203,17.1830902 L6.36924638,18.9970341 L2.25121377,16.6534907 L4.87806159,12.1823366 L6.55548551,13.1266366 C6.55548551,13.1266366 10.6435145,9.71289268 9.72564855,5.56797317" id="Stroke-10" stroke="#C0A690" stroke-width="0.5" stroke-linecap="round" stroke-linejoin="round"></path>
                <path d="M6.20943116,12.9837195 L3.64624094,17.4001073" id="Stroke-11" stroke="#C0A690" stroke-width="0.5" stroke-linecap="round" stroke-linejoin="round"></path>
                <polyline id="Stroke-12" stroke="#C0A690" stroke-width="0.5" stroke-linecap="round" stroke-linejoin="round" points="6.57394928 13.112178 7.26610507 13.5520976 6.66334783 14.644009"></polyline>
                <path d="M6.65774275,14.6621378 C6.65774275,14.6621378 12.2279601,11.7870439 11.0664384,6.22013659" id="Stroke-13" stroke="#C0A690" stroke-width="0.5" stroke-linecap="round" stroke-linejoin="round"></path>
            </g>
        </g>
    </g>
</svg>