
<svg width="24px" height="40px" viewBox="0 0 24 40" version="1.1" xmlns="http://www.w3.org/2000/svg" xmlns:xlink="http://www.w3.org/1999/xlink">
    <!-- Generator: Sketch 50.2 (55047) - http://www.bohemiancoding.com/sketch -->
    <title>icon/verified_user</title>
    <desc>Created with Sketch.</desc>
    <defs></defs>
    <g id="icon/verified_user" stroke="none" stroke-width="1" fill="none" fill-rule="evenodd">
        <g id="Page-1">
            <polygon id="Path-11" fill="#E6DED3" points="7.9375 17.4266357 5.55529785 18.5111084 2.67687988 20.5814209 0.858520508 22.7226562 0.147583008 24.2963867 0.147583008 38.0235596 1.48974609 39.0240479 5.18481445 39.7518311 8.76330566 39.7518311 10.9388428 39.4454346 14.1325684 38.5036621 16.9981689 36.9619141 19.1365967 35.4523926 22.2900391 32.5863037 23.9483643 30.6905518 23.7844238 24.0861816 23.243042 20.2855225 22.5366211 17.0791016 21.6047363 15.2044678 20.7171631 14.1499023 19.6025391 13.7272949 18.4589844 13.7272949 17.7161865 14.003418 17.277832 14.7547607 17.7161865 15.7196045 17.8668213 16.7667236 18.0484619 18.1147461 18.0484619 19.1276855 17.8668213 20.0247803 17.277832 20.9458008 16.5664062 21.6099854 15.3868408 22.0760498 14.4257813 22.2165527 13.5012207 22.0760498 12.4074707 21.6099854 11.2877197 21.0740967 10.3157959 20.2855225 9.55493164 19.3309326 8.76330566 18.5111084"></polygon>
            <path d="M7.95665739,1.42863049 C13.4116125,-2.67315154 19.3039407,3.06276684 18.9904108,6.04570494 C18.9420988,7.0144537 19.3127957,12.304471 17.1166147,14.8490812 L17.2366957,14.8150904 C17.2366957,14.8150904 17.5228174,15.3966925 17.6808,15.902739 C18.1648696,17.4527132 18.7867826,20.7528682 15.8481391,21.9782946 C12.1490227,23.5208797 8.35567268,18.0528476 7.9781835,17.4908055 C7.9377854,17.5181425 7.89382872,17.5388262 7.84631348,17.5528564 C8.09709992,16.5938977 8.22249315,15.9029945 8.22249315,15.4801466 C8.22249315,14.9901804 8.09709992,14.3118626 7.84631348,13.4451933 C7.07006434,12.3304077 2.61394839,5.44592296 7.95665739,1.42863049 Z" id="Combined-Shape" stroke="#C0A690" stroke-width="0.5" fill="#FFFFFF" stroke-linecap="round" stroke-linejoin="round"></path>
            <polygon id="Path-10" fill="#C0A690" points="7.06384277 2.22790527 5.92053223 3.78149414 5.4276123 5.69213867 5.4276123 6.97888184 5.92053223 9.37866211 6.06799316 9.99865723 6.71374512 9.71704102 7.77209473 9.59057617 8.54016113 10.4858398 8.87609863 11.864502 10.6223145 8.36999512 11.4699707 7.86352539 12.8937988 8.36999512 15.8275146 8.57067871 17.678833 7.86352539 18.8956299 6.67614746 19.0241699 5.25598145 18.0633545 3.25341797 16.3433838 1.50512695 14.2740479 0.473266602 12.652832 0.0715332031 10.6223145 0.231689453 9.37121582 0.625732422 8.30517578 1.1965332 7.77209473 1.50512695"></polygon>
            <path d="M0.00139826087,38.2682584 L0.00139826087,25.5881137 C0.00139826087,25.5881137 -0.299895652,20.8272868 7.95665739,17.4490956" id="Stroke-1" stroke="#C0A690" stroke-width="0.5" stroke-linecap="round" stroke-linejoin="bevel"></path>
            <path d="M7.95665739,13.5996899 C7.95665739,13.5996899 2.13054261,5.80940568 7.95665739,1.42863049 C13.7827826,-2.95224806 20.1078261,3.88888889 18.8381217,6.6124031 C17.5684174,9.33602067 13.0355478,8.86770026 11.7650087,7.92888889 C10.4943652,6.98997416 8.86821913,12.0415504 8.89350261,11.9964858 C8.91877565,11.9514212 8.2758887,7.87348837 6.1302887,10.2096124" id="Stroke-3" stroke="#C0A690" stroke-width="0.5" stroke-linecap="round" stroke-linejoin="bevel"></path>
            <path d="M7.96826172,13.5928955 C7.96826172,13.5928955 13.0384696,17.6336951 16.2226435,15.6263566 C19.406713,13.6189147 18.9349565,7.13023256 19.0023652,6.03751938" id="Stroke-4" stroke="#C0A690" stroke-width="0.5" stroke-linecap="round" stroke-linejoin="bevel"></path>
            <path d="M0.00139826087,38.2682584 C0.00139826087,38.2682584 12.0820174,45.2288579 23.8747826,30.6824703" id="Stroke-5" stroke="#C0A690" stroke-width="0.5" stroke-linecap="round" stroke-linejoin="bevel"></path>
            <path d="M23.8747826,30.6824703 C23.8747826,30.6824703 24.6519652,13.6256331 19.075513,13.5909044 C18.8134957,13.5892506 18.1106087,13.787907 17.8198957,13.8649096" id="Stroke-6" stroke="#C0A690" stroke-width="0.5" stroke-linecap="round" stroke-linejoin="bevel"></path>
            <path d="M7.94746435,17.4445478 C7.94746435,17.4445478 11.9501217,23.6038243 15.8481391,21.9782946 C18.7867826,20.7528682 18.1648696,17.4527132 17.6808,15.902739 C17.5228174,15.3966925 17.2366957,14.8150904 17.2366957,14.8150904" id="Stroke-7" stroke="#C0A690" stroke-width="0.5" stroke-linecap="round" stroke-linejoin="bevel"></path>
        </g>
        <path d="M17.7095503,31.1717051 L18.4647749,28.4914612 L18.4647749,30.7430825 L17.7095503,31.1717051 Z M13.9599654,32.9803424 C14.3608354,32.4524956 14.6736463,31.852392 14.8985013,31.1800753 C15.1233563,30.5079907 15.2357321,29.8182517 15.2357321,29.1108003 C15.2357321,28.3877689 15.1267009,27.826035 14.9086257,27.425584 C14.6905633,27.0252635 14.3831246,26.7997605 13.9864128,26.7496406 C13.780709,26.723529 13.5570679,26.7455498 13.3161998,26.8135126 L14.8974811,25.91607 C15.1193013,25.8374885 15.2939991,25.9483904 15.4213679,26.2500959 L17.5111298,31.2843188 L13.3667702,33.6364264 C13.5762191,33.4427215 13.7743167,33.2249214 13.9599654,32.9803424 Z M12.5663474,27.3160166 C12.9076332,27.1223263 13.2177063,27.0840437 13.4967734,27.2011689 C13.7757372,27.3182361 13.9965373,27.5842412 14.1589799,27.9989231 C14.3215129,28.4136775 14.4028827,28.9544641 14.4028827,29.6210507 C14.4028827,30.2815592 14.3297261,30.9089929 14.1833999,31.5037291 C14.037177,32.0985087 13.829239,32.6155628 13.5597023,33.0550507 C13.290256,33.4942485 12.9780521,33.8147544 12.6232972,34.0161041 C12.5936988,34.0329026 12.5644232,34.048352 12.5352381,34.0626844 L12.5352381,27.3346139 C12.5456724,27.3283326 12.5558097,27.3220078 12.5663474,27.3160166 Z M18.4647749,27.9172517 L17.9217369,29.8502964 L16.3495727,25.9242226 C16.2817753,25.7600239 16.2478249,25.6227347 16.2478249,25.5116152 C16.2478249,25.3779091 16.2950507,25.2581292 16.3897992,25.1518983 C16.4627622,25.0703429 16.5737175,24.9797356 16.7215546,24.8808305 L18.4647749,23.8914894 L18.4647749,27.9172517 Z M18.9293745,23.0093366 L12.0705222,26.9020311 C12.0315097,26.9241679 12,26.9785817 12,27.0235372 L12,34.9490876 C12,34.9941737 12.0315097,35.0128145 12.0705222,34.9906776 L18.9293745,31.0979832 C18.968387,31.0758463 19,31.0213745 19,30.9762884 L19,23.0507526 C19,23.0057825 18.968387,22.9871997 18.9293745,23.0093366 Z" id="Fill-1" fill="#C0A690"></path>
    </g>
</svg>